<svg width="544" height="370" viewBox="0 0 544 370" fill="none" xmlns="http://www.w3.org/2000/svg">
<rect x="382.5" y="14.9932" width="161" height="68" rx="9.5" stroke="#C1C1C1"/>
<path d="M409.77 39.5732C409.77 38.6198 409.939 37.6885 410.276 36.7792C410.613 35.8552 411.105 35.0192 411.75 34.2712C412.41 33.5085 413.209 32.9072 414.148 32.4672C415.087 32.0125 416.15 31.7852 417.338 31.7852C418.746 31.7852 419.963 32.1078 420.99 32.7532C422.017 33.3838 422.779 34.1978 423.278 35.1952L421.342 36.4932C421.049 35.8625 420.675 35.3638 420.22 34.9972C419.78 34.6305 419.296 34.3738 418.768 34.2272C418.255 34.0805 417.749 34.0072 417.25 34.0072C416.429 34.0072 415.71 34.1758 415.094 34.5132C414.478 34.8358 413.957 35.2685 413.532 35.8112C413.121 36.3538 412.806 36.9625 412.586 37.6372C412.381 38.3118 412.278 38.9865 412.278 39.6612C412.278 40.4092 412.403 41.1352 412.652 41.8392C412.901 42.5285 413.246 43.1445 413.686 43.6872C414.141 44.2152 414.676 44.6332 415.292 44.9412C415.908 45.2492 416.583 45.4032 417.316 45.4032C417.815 45.4032 418.335 45.3152 418.878 45.1392C419.421 44.9632 419.919 44.6918 420.374 44.3252C420.843 43.9438 421.21 43.4452 421.474 42.8292L423.52 43.9952C423.197 44.7725 422.691 45.4325 422.002 45.9752C421.327 46.5178 420.565 46.9285 419.714 47.2072C418.878 47.4858 418.049 47.6252 417.228 47.6252C416.128 47.6252 415.123 47.3978 414.214 46.9432C413.305 46.4738 412.52 45.8578 411.86 45.0952C411.2 44.3178 410.687 43.4525 410.32 42.4992C409.953 41.5312 409.77 40.5558 409.77 39.5732ZM425.381 43.0272V35.9872H427.801V42.5432C427.801 43.5698 427.984 44.3472 428.351 44.8752C428.732 45.3885 429.282 45.6452 430.001 45.6452C430.456 45.6452 430.896 45.5498 431.321 45.3592C431.761 45.1685 432.157 44.8898 432.509 44.5232C432.876 44.1418 433.169 43.6872 433.389 43.1592V35.9872H435.809V44.7652C435.809 45.0438 435.86 45.2418 435.963 45.3592C436.066 45.4765 436.234 45.5425 436.469 45.5572V47.4932C436.22 47.5372 436.014 47.5665 435.853 47.5812C435.692 47.5958 435.538 47.6032 435.391 47.6032C434.951 47.6032 434.584 47.4858 434.291 47.2512C433.998 47.0018 433.829 46.6865 433.785 46.3052L433.741 45.1612C433.228 45.9972 432.56 46.6352 431.739 47.0752C430.918 47.5005 430.016 47.7132 429.033 47.7132C427.83 47.7132 426.921 47.3172 426.305 46.5252C425.689 45.7332 425.381 44.5672 425.381 43.0272ZM444.111 47.7132C443.217 47.7132 442.403 47.5592 441.669 47.2512C440.951 46.9285 440.327 46.4958 439.799 45.9532C439.271 45.3958 438.861 44.7652 438.567 44.0612C438.289 43.3425 438.149 42.5798 438.149 41.7732C438.149 40.6878 438.399 39.6978 438.897 38.8032C439.396 37.8938 440.093 37.1678 440.987 36.6252C441.882 36.0678 442.931 35.7892 444.133 35.7892C445.336 35.7892 446.37 36.0678 447.235 36.6252C448.115 37.1678 448.797 37.8865 449.281 38.7812C449.765 39.6758 450.007 40.6365 450.007 41.6632C450.007 41.8392 450 42.0078 449.985 42.1692C449.971 42.3158 449.956 42.4405 449.941 42.5432H440.723C440.767 43.2178 440.951 43.8118 441.273 44.3252C441.611 44.8238 442.036 45.2198 442.549 45.5132C443.063 45.7918 443.613 45.9312 444.199 45.9312C444.845 45.9312 445.453 45.7698 446.025 45.4472C446.612 45.1245 447.008 44.6992 447.213 44.1712L449.281 44.7652C449.032 45.3225 448.651 45.8285 448.137 46.2832C447.639 46.7232 447.045 47.0752 446.355 47.3392C445.666 47.5885 444.918 47.7132 444.111 47.7132ZM440.657 40.9372H447.609C447.565 40.2772 447.375 39.6978 447.037 39.1992C446.715 38.6858 446.297 38.2898 445.783 38.0112C445.285 37.7178 444.727 37.5712 444.111 37.5712C443.51 37.5712 442.953 37.7178 442.439 38.0112C441.941 38.2898 441.53 38.6858 441.207 39.1992C440.885 39.6978 440.701 40.2772 440.657 40.9372Z" fill="black"/>
<path d="M416.116 58.7172H413.08V66.4932H412.24V58.7172H409.204V57.9732H416.116V58.7172ZM417.392 66.4932V57.9732H420.992C421.36 57.9732 421.696 58.0492 422 58.2012C422.304 58.3532 422.568 58.5612 422.792 58.8252C423.024 59.0812 423.2 59.3692 423.32 59.6892C423.448 60.0012 423.512 60.3212 423.512 60.6492C423.512 61.0572 423.432 61.4412 423.272 61.8012C423.12 62.1612 422.9 62.4652 422.612 62.7132C422.332 62.9612 422 63.1252 421.616 63.2052L423.704 66.4932H422.756L420.752 63.3492H418.232V66.4932H417.392ZM418.232 62.6052H421.016C421.352 62.6052 421.644 62.5132 421.892 62.3292C422.14 62.1452 422.332 61.9052 422.468 61.6092C422.604 61.3052 422.672 60.9852 422.672 60.6492C422.672 60.3052 422.592 59.9892 422.432 59.7012C422.28 59.4052 422.072 59.1692 421.808 58.9932C421.552 58.8092 421.264 58.7172 420.944 58.7172H418.232V62.6052ZM425.232 66.4932V57.9732H426.072V66.4932H425.232ZM431.629 66.5532C431.061 66.5532 430.533 66.4332 430.045 66.1932C429.557 65.9452 429.133 65.6132 428.773 65.1972C428.413 64.7812 428.133 64.3172 427.933 63.8052C427.741 63.2932 427.645 62.7652 427.645 62.2212C427.645 61.6452 427.741 61.1012 427.933 60.5892C428.133 60.0692 428.409 59.6092 428.761 59.2092C429.113 58.8092 429.529 58.4932 430.009 58.2612C430.489 58.0292 431.013 57.9132 431.581 57.9132C432.421 57.9132 433.105 58.0852 433.633 58.4292C434.161 58.7732 434.561 59.2212 434.833 59.7732L434.185 60.2052C433.913 59.6772 433.549 59.2892 433.093 59.0412C432.637 58.7932 432.129 58.6692 431.569 58.6692C431.097 58.6692 430.669 58.7692 430.285 58.9692C429.909 59.1692 429.585 59.4372 429.313 59.7732C429.041 60.1092 428.833 60.4892 428.689 60.9132C428.553 61.3372 428.485 61.7772 428.485 62.2332C428.485 62.7132 428.565 63.1692 428.725 63.6012C428.885 64.0252 429.113 64.4052 429.409 64.7412C429.705 65.0692 430.045 65.3292 430.429 65.5212C430.821 65.7052 431.241 65.7972 431.689 65.7972C432.209 65.7972 432.701 65.6692 433.165 65.4132C433.629 65.1492 434.073 64.7452 434.497 64.2012V65.0892C433.689 66.0652 432.733 66.5532 431.629 66.5532ZM434.365 62.9532H432.469V62.3052H435.073V66.4932H434.365V62.9532ZM440.218 66.5532C439.65 66.5532 439.122 66.4332 438.634 66.1932C438.146 65.9452 437.722 65.6132 437.362 65.1972C437.002 64.7812 436.722 64.3172 436.522 63.8052C436.33 63.2932 436.234 62.7652 436.234 62.2212C436.234 61.6452 436.33 61.1012 436.522 60.5892C436.722 60.0692 436.998 59.6092 437.35 59.2092C437.702 58.8092 438.118 58.4932 438.598 58.2612C439.078 58.0292 439.602 57.9132 440.17 57.9132C441.01 57.9132 441.694 58.0852 442.222 58.4292C442.75 58.7732 443.15 59.2212 443.422 59.7732L442.774 60.2052C442.502 59.6772 442.138 59.2892 441.682 59.0412C441.226 58.7932 440.718 58.6692 440.158 58.6692C439.686 58.6692 439.258 58.7692 438.874 58.9692C438.498 59.1692 438.174 59.4372 437.902 59.7732C437.63 60.1092 437.422 60.4892 437.278 60.9132C437.142 61.3372 437.074 61.7772 437.074 62.2332C437.074 62.7132 437.154 63.1692 437.314 63.6012C437.474 64.0252 437.702 64.4052 437.998 64.7412C438.294 65.0692 438.634 65.3292 439.018 65.5212C439.41 65.7052 439.83 65.7972 440.278 65.7972C440.798 65.7972 441.29 65.6692 441.754 65.4132C442.218 65.1492 442.662 64.7452 443.086 64.2012V65.0892C442.278 66.0652 441.322 66.5532 440.218 66.5532ZM442.954 62.9532H441.058V62.3052H443.662V66.4932H442.954V62.9532ZM451.112 65.7492V66.4932H445.388V57.9732H451.004V58.7172H446.228V61.7892H450.392V62.4972H446.228V65.7492H451.112ZM452.701 66.4932V57.9732H456.301C456.669 57.9732 457.005 58.0492 457.309 58.2012C457.613 58.3532 457.877 58.5612 458.101 58.8252C458.333 59.0812 458.509 59.3692 458.629 59.6892C458.757 60.0012 458.821 60.3212 458.821 60.6492C458.821 61.0572 458.741 61.4412 458.581 61.8012C458.429 62.1612 458.209 62.4652 457.921 62.7132C457.641 62.9612 457.309 63.1252 456.925 63.2052L459.013 66.4932H458.065L456.061 63.3492H453.541V66.4932H452.701ZM453.541 62.6052H456.325C456.661 62.6052 456.953 62.5132 457.201 62.3292C457.449 62.1452 457.641 61.9052 457.777 61.6092C457.913 61.3052 457.981 60.9852 457.981 60.6492C457.981 60.3052 457.901 59.9892 457.741 59.7012C457.589 59.4052 457.381 59.1692 457.117 58.9932C456.861 58.8092 456.573 58.7172 456.253 58.7172H453.541V62.6052ZM469.296 58.7172H466.26V66.4932H465.42V58.7172H462.384V57.9732H469.296V58.7172ZM473.711 66.5532C473.111 66.5532 472.567 66.4332 472.079 66.1932C471.591 65.9532 471.171 65.6292 470.819 65.2212C470.467 64.8052 470.195 64.3412 470.003 63.8292C469.811 63.3092 469.715 62.7772 469.715 62.2332C469.715 61.6652 469.815 61.1252 470.015 60.6132C470.215 60.0932 470.495 59.6332 470.855 59.2332C471.223 58.8252 471.651 58.5052 472.139 58.2732C472.627 58.0332 473.155 57.9132 473.723 57.9132C474.323 57.9132 474.867 58.0372 475.355 58.2852C475.843 58.5332 476.259 58.8652 476.603 59.2812C476.955 59.6972 477.227 60.1612 477.419 60.6732C477.611 61.1852 477.707 61.7092 477.707 62.2452C477.707 62.8132 477.607 63.3572 477.407 63.8772C477.207 64.3892 476.927 64.8492 476.567 65.2572C476.207 65.6572 475.783 65.9732 475.295 66.2052C474.807 66.4372 474.279 66.5532 473.711 66.5532ZM470.555 62.2332C470.555 62.6972 470.631 63.1452 470.783 63.5772C470.935 64.0012 471.151 64.3812 471.431 64.7172C471.711 65.0452 472.043 65.3092 472.427 65.5092C472.819 65.7012 473.247 65.7972 473.711 65.7972C474.199 65.7972 474.635 65.6972 475.019 65.4972C475.411 65.2892 475.743 65.0172 476.015 64.6812C476.295 64.3372 476.507 63.9532 476.651 63.5292C476.795 63.1052 476.867 62.6732 476.867 62.2332C476.867 61.7692 476.791 61.3252 476.639 60.9012C476.487 60.4772 476.267 60.0972 475.979 59.7612C475.699 59.4252 475.367 59.1612 474.983 58.9692C474.599 58.7772 474.175 58.6812 473.711 58.6812C473.231 58.6812 472.795 58.7812 472.403 58.9812C472.019 59.1812 471.687 59.4532 471.407 59.7972C471.135 60.1332 470.923 60.5132 470.771 60.9372C470.627 61.3612 470.555 61.7932 470.555 62.2332ZM482.349 66.4932V57.9732H485.241C486.145 57.9732 486.897 58.1652 487.497 58.5492C488.105 58.9252 488.561 59.4372 488.865 60.0852C489.169 60.7252 489.321 61.4372 489.321 62.2212C489.321 63.0852 489.153 63.8372 488.817 64.4772C488.489 65.1172 488.017 65.6132 487.401 65.9652C486.793 66.3172 486.073 66.4932 485.241 66.4932H482.349ZM488.481 62.2212C488.481 61.5412 488.353 60.9372 488.097 60.4092C487.849 59.8812 487.485 59.4692 487.005 59.1732C486.525 58.8692 485.937 58.7172 485.241 58.7172H483.189V65.7492H485.241C485.945 65.7492 486.537 65.5932 487.017 65.2812C487.497 64.9692 487.861 64.5492 488.109 64.0212C488.357 63.4852 488.481 62.8852 488.481 62.2212ZM490.927 66.4932V57.9732H494.527C494.895 57.9732 495.231 58.0492 495.535 58.2012C495.839 58.3532 496.103 58.5612 496.327 58.8252C496.559 59.0812 496.735 59.3692 496.855 59.6892C496.983 60.0012 497.047 60.3212 497.047 60.6492C497.047 61.0572 496.967 61.4412 496.807 61.8012C496.655 62.1612 496.435 62.4652 496.147 62.7132C495.867 62.9612 495.535 63.1252 495.151 63.2052L497.239 66.4932H496.291L494.287 63.3492H491.767V66.4932H490.927ZM491.767 62.6052H494.551C494.887 62.6052 495.179 62.5132 495.427 62.3292C495.675 62.1452 495.867 61.9052 496.003 61.6092C496.139 61.3052 496.207 60.9852 496.207 60.6492C496.207 60.3052 496.127 59.9892 495.967 59.7012C495.815 59.4052 495.607 59.1692 495.343 58.9932C495.087 58.8092 494.799 58.7172 494.479 58.7172H491.767V62.6052ZM498.767 66.4932V57.9732H499.607V66.4932H498.767ZM502.584 59.5212V66.4932H501.744V57.9732H502.44L508.032 65.0772V57.9852H508.872V66.4932H508.092L502.584 59.5212ZM511.013 66.4932V57.9852H511.853V62.9292L516.545 57.9732H517.469L513.989 61.7172L517.649 66.4932H516.701L513.449 62.2212L511.853 63.8772V66.4932H511.013Z" fill="black" fill-opacity="0.7"/>
<rect x="0.5" y="286.993" width="161" height="68" rx="9.5" stroke="#C1C1C1"/>
<rect x="382.5" y="286.993" width="161" height="68" rx="9.5" stroke="#C1C1C1"/>
<rect x="0.5" y="14.9932" width="161" height="68" rx="9.5" stroke="#C1C1C1"/>
<path d="M25.068 338.493V329.973H28.596C28.964 329.973 29.3 330.049 29.604 330.201C29.916 330.353 30.184 330.561 30.408 330.825C30.632 331.081 30.808 331.369 30.936 331.689C31.064 332.001 31.128 332.321 31.128 332.649C31.128 333.113 31.024 333.553 30.816 333.969C30.616 334.377 30.332 334.709 29.964 334.965C29.596 335.221 29.164 335.349 28.668 335.349H25.908V338.493H25.068ZM25.908 334.605H28.632C28.968 334.605 29.26 334.513 29.508 334.329C29.756 334.145 29.948 333.905 30.084 333.609C30.22 333.313 30.288 332.993 30.288 332.649C30.288 332.297 30.208 331.973 30.048 331.677C29.888 331.381 29.676 331.149 29.412 330.981C29.156 330.805 28.872 330.717 28.56 330.717H25.908V334.605ZM35.9648 338.553C35.3648 338.553 34.8208 338.433 34.3328 338.193C33.8448 337.953 33.4248 337.629 33.0728 337.221C32.7208 336.805 32.4488 336.341 32.2568 335.829C32.0648 335.309 31.9688 334.777 31.9688 334.233C31.9688 333.665 32.0688 333.125 32.2688 332.613C32.4688 332.093 32.7488 331.633 33.1088 331.233C33.4768 330.825 33.9048 330.505 34.3928 330.273C34.8808 330.033 35.4088 329.913 35.9768 329.913C36.5768 329.913 37.1208 330.037 37.6088 330.285C38.0968 330.533 38.5128 330.865 38.8568 331.281C39.2088 331.697 39.4808 332.161 39.6728 332.673C39.8648 333.185 39.9608 333.709 39.9608 334.245C39.9608 334.813 39.8608 335.357 39.6608 335.877C39.4608 336.389 39.1808 336.849 38.8208 337.257C38.4608 337.657 38.0368 337.973 37.5488 338.205C37.0608 338.437 36.5328 338.553 35.9648 338.553ZM32.8088 334.233C32.8088 334.697 32.8848 335.145 33.0368 335.577C33.1888 336.001 33.4048 336.381 33.6848 336.717C33.9648 337.045 34.2968 337.309 34.6808 337.509C35.0728 337.701 35.5008 337.797 35.9648 337.797C36.4528 337.797 36.8888 337.697 37.2728 337.497C37.6648 337.289 37.9968 337.017 38.2688 336.681C38.5488 336.337 38.7608 335.953 38.9048 335.529C39.0488 335.105 39.1208 334.673 39.1208 334.233C39.1208 333.769 39.0448 333.325 38.8928 332.901C38.7408 332.477 38.5208 332.097 38.2328 331.761C37.9528 331.425 37.6208 331.161 37.2368 330.969C36.8528 330.777 36.4288 330.681 35.9648 330.681C35.4848 330.681 35.0488 330.781 34.6568 330.981C34.2728 331.181 33.9408 331.453 33.6608 331.797C33.3888 332.133 33.1768 332.513 33.0248 332.937C32.8808 333.361 32.8088 333.793 32.8088 334.233ZM45.0126 338.553C44.3406 338.553 43.7726 338.433 43.3086 338.193C42.8446 337.953 42.4766 337.633 42.2046 337.233C41.9326 336.825 41.7326 336.365 41.6046 335.853C41.4846 335.341 41.4246 334.813 41.4246 334.269V329.973H42.2526V334.269C42.2526 334.709 42.2966 335.141 42.3846 335.565C42.4806 335.989 42.6326 336.369 42.8406 336.705C43.0486 337.041 43.3286 337.309 43.6806 337.509C44.0326 337.701 44.4726 337.797 45.0006 337.797C45.5446 337.797 45.9926 337.697 46.3446 337.497C46.7046 337.289 46.9846 337.017 47.1846 336.681C47.3926 336.345 47.5406 335.969 47.6286 335.553C47.7166 335.129 47.7606 334.701 47.7606 334.269V329.973H48.6006V334.269C48.6006 334.837 48.5366 335.381 48.4086 335.901C48.2806 336.421 48.0726 336.877 47.7846 337.269C47.5046 337.661 47.1366 337.973 46.6806 338.205C46.2246 338.437 45.6686 338.553 45.0126 338.553ZM50.6032 338.493V329.973H54.2032C54.5712 329.973 54.9072 330.049 55.2112 330.201C55.5152 330.353 55.7792 330.561 56.0032 330.825C56.2352 331.081 56.4112 331.369 56.5312 331.689C56.6592 332.001 56.7232 332.321 56.7232 332.649C56.7232 333.057 56.6432 333.441 56.4832 333.801C56.3312 334.161 56.1112 334.465 55.8232 334.713C55.5432 334.961 55.2112 335.125 54.8272 335.205L56.9152 338.493H55.9672L53.9632 335.349H51.4432V338.493H50.6032ZM51.4432 334.605H54.2272C54.5632 334.605 54.8552 334.513 55.1032 334.329C55.3512 334.145 55.5432 333.905 55.6792 333.609C55.8152 333.305 55.8832 332.985 55.8832 332.649C55.8832 332.305 55.8032 331.989 55.6432 331.701C55.4912 331.405 55.2832 331.169 55.0192 330.993C54.7632 330.809 54.4752 330.717 54.1552 330.717H51.4432V334.605ZM58.443 338.493V329.973H59.283V338.493H58.443ZM62.2596 331.521V338.493H61.4196V329.973H62.1156L67.7076 337.077V329.985H68.5476V338.493H67.7676L62.2596 331.521ZM74.1091 338.553C73.5411 338.553 73.0131 338.433 72.5251 338.193C72.0371 337.945 71.6131 337.613 71.2531 337.197C70.8931 336.781 70.6131 336.317 70.4131 335.805C70.2211 335.293 70.1251 334.765 70.1251 334.221C70.1251 333.645 70.2211 333.101 70.4131 332.589C70.6131 332.069 70.8891 331.609 71.2411 331.209C71.5931 330.809 72.0091 330.493 72.4891 330.261C72.9691 330.029 73.4931 329.913 74.0611 329.913C74.9011 329.913 75.5851 330.085 76.1131 330.429C76.6411 330.773 77.0411 331.221 77.3131 331.773L76.6651 332.205C76.3931 331.677 76.0291 331.289 75.5731 331.041C75.1171 330.793 74.6091 330.669 74.0491 330.669C73.5771 330.669 73.1491 330.769 72.7651 330.969C72.3891 331.169 72.0651 331.437 71.7931 331.773C71.5211 332.109 71.3131 332.489 71.1691 332.913C71.0331 333.337 70.9651 333.777 70.9651 334.233C70.9651 334.713 71.0451 335.169 71.2051 335.601C71.3651 336.025 71.5931 336.405 71.8891 336.741C72.1851 337.069 72.5251 337.329 72.9091 337.521C73.3011 337.705 73.7211 337.797 74.1691 337.797C74.6891 337.797 75.1811 337.669 75.6451 337.413C76.1091 337.149 76.5531 336.745 76.9771 336.201V337.089C76.1691 338.065 75.2131 338.553 74.1091 338.553ZM76.8451 334.953H74.9491V334.305H77.5531V338.493H76.8451V334.953ZM84.6025 329.973H85.3105L88.8505 338.493H87.9625L86.8585 335.829H83.0305L81.9385 338.493H81.0385L84.6025 329.973ZM86.6665 335.169L84.9505 330.957L83.2105 335.169H86.6665ZM92.7555 338.493V329.973H95.6475C96.5515 329.973 97.3035 330.165 97.9035 330.549C98.5115 330.925 98.9675 331.437 99.2715 332.085C99.5755 332.725 99.7275 333.437 99.7275 334.221C99.7275 335.085 99.5595 335.837 99.2235 336.477C98.8955 337.117 98.4235 337.613 97.8075 337.965C97.1995 338.317 96.4795 338.493 95.6475 338.493H92.7555ZM98.8875 334.221C98.8875 333.541 98.7595 332.937 98.5035 332.409C98.2555 331.881 97.8915 331.469 97.4115 331.173C96.9315 330.869 96.3435 330.717 95.6475 330.717H93.5955V337.749H95.6475C96.3515 337.749 96.9435 337.593 97.4235 337.281C97.9035 336.969 98.2675 336.549 98.5155 336.021C98.7635 335.485 98.8875 334.885 98.8875 334.221ZM101.334 338.493V329.973H104.934C105.302 329.973 105.638 330.049 105.942 330.201C106.246 330.353 106.51 330.561 106.734 330.825C106.966 331.081 107.142 331.369 107.262 331.689C107.39 332.001 107.454 332.321 107.454 332.649C107.454 333.057 107.374 333.441 107.214 333.801C107.062 334.161 106.842 334.465 106.554 334.713C106.274 334.961 105.942 335.125 105.558 335.205L107.646 338.493H106.698L104.694 335.349H102.174V338.493H101.334ZM102.174 334.605H104.958C105.294 334.605 105.586 334.513 105.834 334.329C106.082 334.145 106.274 333.905 106.41 333.609C106.546 333.305 106.614 332.985 106.614 332.649C106.614 332.305 106.534 331.989 106.374 331.701C106.222 331.405 106.014 331.169 105.75 330.993C105.494 330.809 105.206 330.717 104.886 330.717H102.174V334.605ZM109.173 338.493V329.973H110.013V338.493H109.173ZM112.99 331.521V338.493H112.15V329.973H112.846L118.438 337.077V329.985H119.278V338.493H118.498L112.99 331.521ZM121.42 338.493V329.985H122.26V334.929L126.952 329.973H127.876L124.396 333.717L128.056 338.493H127.108L123.856 334.221L122.26 335.877V338.493H121.42Z" fill="black" fill-opacity="0.7"/>
<path d="M25.76 318.493V302.873H32.558C33.262 302.873 33.9073 303.02 34.494 303.313C35.0807 303.606 35.5867 303.995 36.012 304.479C36.452 304.963 36.7893 305.506 37.024 306.107C37.2733 306.708 37.398 307.324 37.398 307.955C37.398 308.644 37.2733 309.304 37.024 309.935C36.7747 310.566 36.4153 311.108 35.946 311.563C35.4913 312.018 34.956 312.348 34.34 312.553L38.014 318.493H35.242L31.854 313.059H28.224V318.493H25.76ZM28.224 310.881H32.536C32.9907 310.881 33.394 310.749 33.746 310.485C34.098 310.221 34.3767 309.869 34.582 309.429C34.7873 308.974 34.89 308.483 34.89 307.955C34.89 307.412 34.7727 306.928 34.538 306.503C34.3033 306.063 33.9953 305.711 33.614 305.447C33.2473 305.183 32.844 305.051 32.404 305.051H28.224V310.881ZM44.8457 318.713C43.951 318.713 43.137 318.559 42.4037 318.251C41.685 317.928 41.0617 317.496 40.5337 316.953C40.0057 316.396 39.595 315.765 39.3017 315.061C39.023 314.342 38.8837 313.58 38.8837 312.773C38.8837 311.688 39.133 310.698 39.6317 309.803C40.1304 308.894 40.827 308.168 41.7217 307.625C42.6164 307.068 43.665 306.789 44.8677 306.789C46.0704 306.789 47.1044 307.068 47.9697 307.625C48.8497 308.168 49.5317 308.886 50.0157 309.781C50.4997 310.676 50.7417 311.636 50.7417 312.663C50.7417 312.839 50.7344 313.008 50.7197 313.169C50.705 313.316 50.6904 313.44 50.6757 313.543H41.4577C41.5017 314.218 41.685 314.812 42.0077 315.325C42.345 315.824 42.7704 316.22 43.2837 316.513C43.797 316.792 44.347 316.931 44.9337 316.931C45.579 316.931 46.1877 316.77 46.7597 316.447C47.3464 316.124 47.7424 315.699 47.9477 315.171L50.0157 315.765C49.7664 316.322 49.385 316.828 48.8717 317.283C48.373 317.723 47.779 318.075 47.0897 318.339C46.4004 318.588 45.6524 318.713 44.8457 318.713ZM41.3917 311.937H48.3437C48.2997 311.277 48.109 310.698 47.7717 310.199C47.449 309.686 47.031 309.29 46.5177 309.011C46.019 308.718 45.4617 308.571 44.8457 308.571C44.2444 308.571 43.687 308.718 43.1737 309.011C42.675 309.29 42.2644 309.686 41.9417 310.199C41.619 310.698 41.4357 311.277 41.3917 311.937ZM56.8077 318.713C55.8397 318.713 54.923 318.559 54.0577 318.251C53.1923 317.928 52.4517 317.452 51.8357 316.821L52.7377 315.193C53.3977 315.78 54.0577 316.205 54.7177 316.469C55.3923 316.733 56.0597 316.865 56.7197 316.865C57.3943 316.865 57.9443 316.74 58.3697 316.491C58.795 316.227 59.0077 315.846 59.0077 315.347C59.0077 314.98 58.8977 314.709 58.6777 314.533C58.4577 314.357 58.135 314.203 57.7097 314.071C57.299 313.939 56.8003 313.792 56.2137 313.631C55.3923 313.382 54.703 313.125 54.1457 312.861C53.5883 312.582 53.1703 312.245 52.8917 311.849C52.613 311.453 52.4737 310.947 52.4737 310.331C52.4737 309.583 52.6643 308.945 53.0457 308.417C53.427 307.889 53.955 307.486 54.6297 307.207C55.319 306.928 56.111 306.789 57.0057 306.789C57.8417 306.789 58.6117 306.921 59.3157 307.185C60.0343 307.434 60.665 307.83 61.2077 308.373L60.1737 309.979C59.6603 309.51 59.1323 309.165 58.5897 308.945C58.0617 308.725 57.4897 308.615 56.8737 308.615C56.5217 308.615 56.1843 308.659 55.8617 308.747C55.539 308.82 55.2677 308.967 55.0477 309.187C54.8423 309.392 54.7397 309.686 54.7397 310.067C54.7397 310.375 54.8277 310.624 55.0037 310.815C55.1797 311.006 55.4437 311.167 55.7957 311.299C56.1477 311.431 56.5803 311.578 57.0937 311.739C57.9883 312.003 58.751 312.267 59.3817 312.531C60.0123 312.78 60.4963 313.11 60.8337 313.521C61.1857 313.917 61.3617 314.467 61.3617 315.171C61.3617 316.286 60.9437 317.158 60.1077 317.789C59.2863 318.405 58.1863 318.713 56.8077 318.713ZM70.0563 318.713C69.1323 318.713 68.3183 318.493 67.6143 318.053C66.9103 317.613 66.353 317.041 65.9423 316.337V323.179H63.5223V306.987H65.6563V309.055C66.0963 308.366 66.6683 307.816 67.3723 307.405C68.0763 306.994 68.861 306.789 69.7263 306.789C70.5183 306.789 71.2443 306.95 71.9043 307.273C72.5643 307.581 73.1363 308.014 73.6203 308.571C74.1043 309.128 74.4783 309.766 74.7423 310.485C75.021 311.189 75.1603 311.937 75.1603 312.729C75.1603 313.829 74.9403 314.834 74.5003 315.743C74.075 316.652 73.4736 317.378 72.6963 317.921C71.9336 318.449 71.0536 318.713 70.0563 318.713ZM69.2643 316.645C69.7776 316.645 70.2396 316.535 70.6503 316.315C71.0756 316.095 71.435 315.802 71.7283 315.435C72.0363 315.068 72.271 314.65 72.4323 314.181C72.5936 313.712 72.6743 313.228 72.6743 312.729C72.6743 312.201 72.5863 311.702 72.4103 311.233C72.2343 310.764 71.9776 310.353 71.6403 310.001C71.3176 309.649 70.9363 309.37 70.4963 309.165C70.071 308.96 69.6016 308.857 69.0883 308.857C68.7803 308.857 68.4576 308.916 68.1203 309.033C67.783 309.15 67.4676 309.312 67.1743 309.517C66.881 309.722 66.6243 309.964 66.4043 310.243C66.1843 310.522 66.0303 310.815 65.9423 311.123V314.137C66.1476 314.606 66.419 315.032 66.7563 315.413C67.0936 315.78 67.4823 316.08 67.9223 316.315C68.3623 316.535 68.8096 316.645 69.2643 316.645ZM82.5068 318.713C81.5974 318.713 80.7834 318.559 80.0648 318.251C79.3461 317.928 78.7228 317.488 78.1948 316.931C77.6814 316.374 77.2854 315.743 77.0068 315.039C76.7281 314.32 76.5888 313.558 76.5888 312.751C76.5888 311.944 76.7281 311.182 77.0068 310.463C77.2854 309.744 77.6814 309.114 78.1948 308.571C78.7228 308.014 79.3461 307.581 80.0648 307.273C80.7981 306.95 81.6121 306.789 82.5068 306.789C83.4014 306.789 84.2081 306.95 84.9268 307.273C85.6601 307.581 86.2834 308.014 86.7968 308.571C87.3248 309.114 87.7281 309.744 88.0068 310.463C88.2854 311.182 88.4248 311.944 88.4248 312.751C88.4248 313.558 88.2854 314.32 88.0068 315.039C87.7281 315.743 87.3248 316.374 86.7968 316.931C86.2834 317.488 85.6601 317.928 84.9268 318.251C84.2081 318.559 83.4014 318.713 82.5068 318.713ZM79.0748 312.773C79.0748 313.506 79.2288 314.166 79.5368 314.753C79.8448 315.34 80.2554 315.802 80.7688 316.139C81.2821 316.476 81.8614 316.645 82.5068 316.645C83.1374 316.645 83.7094 316.476 84.2228 316.139C84.7508 315.787 85.1688 315.318 85.4768 314.731C85.7848 314.13 85.9388 313.47 85.9388 312.751C85.9388 312.018 85.7848 311.358 85.4768 310.771C85.1688 310.184 84.7508 309.722 84.2228 309.385C83.7094 309.033 83.1374 308.857 82.5068 308.857C81.8614 308.857 81.2821 309.033 80.7688 309.385C80.2554 309.737 79.8448 310.206 79.5368 310.793C79.2288 311.365 79.0748 312.025 79.0748 312.773ZM100.889 318.493H98.4691V312.047C98.4691 310.976 98.2931 310.192 97.9411 309.693C97.6038 309.194 97.0978 308.945 96.4231 308.945C95.9538 308.945 95.4845 309.062 95.0151 309.297C94.5605 309.532 94.1498 309.854 93.7831 310.265C93.4165 310.661 93.1525 311.123 92.9911 311.651V318.493H90.5711V306.987H92.7711V309.297C93.0645 308.784 93.4458 308.344 93.9151 307.977C94.3991 307.596 94.9418 307.302 95.5431 307.097C96.1445 306.892 96.7825 306.789 97.4571 306.789C98.1465 306.789 98.7111 306.914 99.1511 307.163C99.6058 307.412 99.9578 307.757 100.207 308.197C100.471 308.622 100.647 309.121 100.735 309.693C100.838 310.25 100.889 310.844 100.889 311.475V318.493ZM107.79 318.713C106.822 318.713 105.905 318.559 105.04 318.251C104.175 317.928 103.434 317.452 102.818 316.821L103.72 315.193C104.38 315.78 105.04 316.205 105.7 316.469C106.375 316.733 107.042 316.865 107.702 316.865C108.377 316.865 108.927 316.74 109.352 316.491C109.777 316.227 109.99 315.846 109.99 315.347C109.99 314.98 109.88 314.709 109.66 314.533C109.44 314.357 109.117 314.203 108.692 314.071C108.281 313.939 107.783 313.792 107.196 313.631C106.375 313.382 105.685 313.125 105.128 312.861C104.571 312.582 104.153 312.245 103.874 311.849C103.595 311.453 103.456 310.947 103.456 310.331C103.456 309.583 103.647 308.945 104.028 308.417C104.409 307.889 104.937 307.486 105.612 307.207C106.301 306.928 107.093 306.789 107.988 306.789C108.824 306.789 109.594 306.921 110.298 307.185C111.017 307.434 111.647 307.83 112.19 308.373L111.156 309.979C110.643 309.51 110.115 309.165 109.572 308.945C109.044 308.725 108.472 308.615 107.856 308.615C107.504 308.615 107.167 308.659 106.844 308.747C106.521 308.82 106.25 308.967 106.03 309.187C105.825 309.392 105.722 309.686 105.722 310.067C105.722 310.375 105.81 310.624 105.986 310.815C106.162 311.006 106.426 311.167 106.778 311.299C107.13 311.431 107.563 311.578 108.076 311.739C108.971 312.003 109.733 312.267 110.364 312.531C110.995 312.78 111.479 313.11 111.816 313.521C112.168 313.917 112.344 314.467 112.344 315.171C112.344 316.286 111.926 317.158 111.09 317.789C110.269 318.405 109.169 318.713 107.79 318.713ZM119.719 318.713C118.824 318.713 118.01 318.559 117.277 318.251C116.558 317.928 115.935 317.496 115.407 316.953C114.879 316.396 114.468 315.765 114.175 315.061C113.896 314.342 113.757 313.58 113.757 312.773C113.757 311.688 114.006 310.698 114.505 309.803C115.003 308.894 115.7 308.168 116.595 307.625C117.489 307.068 118.538 306.789 119.741 306.789C120.943 306.789 121.977 307.068 122.843 307.625C123.723 308.168 124.405 308.886 124.889 309.781C125.373 310.676 125.615 311.636 125.615 312.663C125.615 312.839 125.607 313.008 125.593 313.169C125.578 313.316 125.563 313.44 125.549 313.543H116.331C116.375 314.218 116.558 314.812 116.881 315.325C117.218 315.824 117.643 316.22 118.157 316.513C118.67 316.792 119.22 316.931 119.807 316.931C120.452 316.931 121.061 316.77 121.633 316.447C122.219 316.124 122.615 315.699 122.821 315.171L124.889 315.765C124.639 316.322 124.258 316.828 123.745 317.283C123.246 317.723 122.652 318.075 121.963 318.339C121.273 318.588 120.525 318.713 119.719 318.713ZM116.265 311.937H123.217C123.173 311.277 122.982 310.698 122.645 310.199C122.322 309.686 121.904 309.29 121.391 309.011C120.892 308.718 120.335 308.571 119.719 308.571C119.117 308.571 118.56 308.718 118.047 309.011C117.548 309.29 117.137 309.686 116.815 310.199C116.492 310.698 116.309 311.277 116.265 311.937Z" fill="black"/>
<path d="M413.536 338.553C412.864 338.553 412.296 338.433 411.832 338.193C411.368 337.953 411 337.633 410.728 337.233C410.456 336.825 410.256 336.365 410.128 335.853C410.008 335.341 409.948 334.813 409.948 334.269V329.973H410.776V334.269C410.776 334.709 410.82 335.141 410.908 335.565C411.004 335.989 411.156 336.369 411.364 336.705C411.572 337.041 411.852 337.309 412.204 337.509C412.556 337.701 412.996 337.797 413.524 337.797C414.068 337.797 414.516 337.697 414.868 337.497C415.228 337.289 415.508 337.017 415.708 336.681C415.916 336.345 416.064 335.969 416.152 335.553C416.24 335.129 416.284 334.701 416.284 334.269V329.973H417.124V334.269C417.124 334.837 417.06 335.381 416.932 335.901C416.804 336.421 416.596 336.877 416.308 337.269C416.028 337.661 415.66 337.973 415.204 338.205C414.748 338.437 414.192 338.553 413.536 338.553ZM419.127 338.493V329.973H422.727C423.095 329.973 423.431 330.049 423.735 330.201C424.039 330.353 424.303 330.561 424.527 330.825C424.759 331.081 424.935 331.369 425.055 331.689C425.183 332.001 425.247 332.321 425.247 332.649C425.247 333.057 425.167 333.441 425.007 333.801C424.855 334.161 424.635 334.465 424.347 334.713C424.067 334.961 423.735 335.125 423.351 335.205L425.439 338.493H424.491L422.487 335.349H419.967V338.493H419.127ZM419.967 334.605H422.751C423.087 334.605 423.379 334.513 423.627 334.329C423.875 334.145 424.067 333.905 424.203 333.609C424.339 333.305 424.407 332.985 424.407 332.649C424.407 332.305 424.327 331.989 424.167 331.701C424.015 331.405 423.807 331.169 423.543 330.993C423.287 330.809 422.999 330.717 422.679 330.717H419.967V334.605ZM430.386 338.553C429.818 338.553 429.29 338.433 428.802 338.193C428.314 337.945 427.89 337.613 427.53 337.197C427.17 336.781 426.89 336.317 426.69 335.805C426.498 335.293 426.402 334.765 426.402 334.221C426.402 333.645 426.498 333.101 426.69 332.589C426.89 332.069 427.166 331.609 427.518 331.209C427.87 330.809 428.286 330.493 428.766 330.261C429.246 330.029 429.77 329.913 430.338 329.913C431.178 329.913 431.862 330.085 432.39 330.429C432.918 330.773 433.318 331.221 433.59 331.773L432.942 332.205C432.67 331.677 432.306 331.289 431.85 331.041C431.394 330.793 430.886 330.669 430.326 330.669C429.854 330.669 429.426 330.769 429.042 330.969C428.666 331.169 428.342 331.437 428.07 331.773C427.798 332.109 427.59 332.489 427.446 332.913C427.31 333.337 427.242 333.777 427.242 334.233C427.242 334.713 427.322 335.169 427.482 335.601C427.642 336.025 427.87 336.405 428.166 336.741C428.462 337.069 428.802 337.329 429.186 337.521C429.578 337.705 429.998 337.797 430.446 337.797C430.966 337.797 431.458 337.669 431.922 337.413C432.386 337.149 432.83 336.745 433.254 336.201V337.089C432.446 338.065 431.49 338.553 430.386 338.553ZM433.122 334.953H431.226V334.305H433.83V338.493H433.122V334.953ZM441.28 337.749V338.493H435.556V329.973H441.172V330.717H436.396V333.789H440.56V334.497H436.396V337.749H441.28ZM451.624 330.717H448.588V338.493H447.748V330.717H444.712V329.973H451.624V330.717ZM456.039 338.553C455.439 338.553 454.895 338.433 454.407 338.193C453.919 337.953 453.499 337.629 453.147 337.221C452.795 336.805 452.523 336.341 452.331 335.829C452.139 335.309 452.043 334.777 452.043 334.233C452.043 333.665 452.143 333.125 452.343 332.613C452.543 332.093 452.823 331.633 453.183 331.233C453.551 330.825 453.979 330.505 454.467 330.273C454.955 330.033 455.483 329.913 456.051 329.913C456.651 329.913 457.195 330.037 457.683 330.285C458.171 330.533 458.587 330.865 458.931 331.281C459.283 331.697 459.555 332.161 459.747 332.673C459.939 333.185 460.035 333.709 460.035 334.245C460.035 334.813 459.935 335.357 459.735 335.877C459.535 336.389 459.255 336.849 458.895 337.257C458.535 337.657 458.111 337.973 457.623 338.205C457.135 338.437 456.607 338.553 456.039 338.553ZM452.883 334.233C452.883 334.697 452.959 335.145 453.111 335.577C453.263 336.001 453.479 336.381 453.759 336.717C454.039 337.045 454.371 337.309 454.755 337.509C455.147 337.701 455.575 337.797 456.039 337.797C456.527 337.797 456.963 337.697 457.347 337.497C457.739 337.289 458.071 337.017 458.343 336.681C458.623 336.337 458.835 335.953 458.979 335.529C459.123 335.105 459.195 334.673 459.195 334.233C459.195 333.769 459.119 333.325 458.967 332.901C458.815 332.477 458.595 332.097 458.307 331.761C458.027 331.425 457.695 331.161 457.311 330.969C456.927 330.777 456.503 330.681 456.039 330.681C455.559 330.681 455.123 330.781 454.731 330.981C454.347 331.181 454.015 331.453 453.735 331.797C453.463 332.133 453.251 332.513 453.099 332.937C452.955 333.361 452.883 333.793 452.883 334.233ZM464.677 338.493V329.973H467.569C468.473 329.973 469.225 330.165 469.825 330.549C470.433 330.925 470.889 331.437 471.193 332.085C471.497 332.725 471.649 333.437 471.649 334.221C471.649 335.085 471.481 335.837 471.145 336.477C470.817 337.117 470.345 337.613 469.729 337.965C469.121 338.317 468.401 338.493 467.569 338.493H464.677ZM470.809 334.221C470.809 333.541 470.681 332.937 470.425 332.409C470.177 331.881 469.813 331.469 469.333 331.173C468.853 330.869 468.265 330.717 467.569 330.717H465.517V337.749H467.569C468.273 337.749 468.865 337.593 469.345 337.281C469.825 336.969 470.189 336.549 470.437 336.021C470.685 335.485 470.809 334.885 470.809 334.221ZM473.256 338.493V329.973H476.856C477.224 329.973 477.56 330.049 477.864 330.201C478.168 330.353 478.432 330.561 478.656 330.825C478.888 331.081 479.064 331.369 479.184 331.689C479.312 332.001 479.376 332.321 479.376 332.649C479.376 333.057 479.296 333.441 479.136 333.801C478.984 334.161 478.764 334.465 478.476 334.713C478.196 334.961 477.864 335.125 477.48 335.205L479.568 338.493H478.62L476.616 335.349H474.096V338.493H473.256ZM474.096 334.605H476.88C477.216 334.605 477.508 334.513 477.756 334.329C478.004 334.145 478.196 333.905 478.332 333.609C478.468 333.305 478.536 332.985 478.536 332.649C478.536 332.305 478.456 331.989 478.296 331.701C478.144 331.405 477.936 331.169 477.672 330.993C477.416 330.809 477.128 330.717 476.808 330.717H474.096V334.605ZM481.095 338.493V329.973H481.935V338.493H481.095ZM484.912 331.521V338.493H484.072V329.973H484.768L490.36 337.077V329.985H491.2V338.493H490.42L484.912 331.521ZM493.341 338.493V329.985H494.181V334.929L498.873 329.973H499.797L496.317 333.717L499.977 338.493H499.029L495.777 334.221L494.181 335.877V338.493H493.341Z" fill="black" fill-opacity="0.7"/>
<path d="M25.068 67.4932V58.9732H27.96C28.864 58.9732 29.616 59.1652 30.216 59.5492C30.824 59.9252 31.28 60.4372 31.584 61.0852C31.888 61.7252 32.04 62.4372 32.04 63.2212C32.04 64.0852 31.872 64.8372 31.536 65.4772C31.208 66.1172 30.736 66.6132 30.12 66.9652C29.512 67.3172 28.792 67.4932 27.96 67.4932H25.068ZM31.2 63.2212C31.2 62.5412 31.072 61.9372 30.816 61.4092C30.568 60.8812 30.204 60.4692 29.724 60.1732C29.244 59.8692 28.656 59.7172 27.96 59.7172H25.908V66.7492H27.96C28.664 66.7492 29.256 66.5932 29.736 66.2812C30.216 65.9692 30.58 65.5492 30.828 65.0212C31.076 64.4852 31.2 63.8852 31.2 63.2212ZM37.0781 67.5532C36.4781 67.5532 35.9341 67.4332 35.4461 67.1932C34.9581 66.9532 34.5381 66.6292 34.1861 66.2212C33.8341 65.8052 33.5621 65.3412 33.3701 64.8292C33.1781 64.3092 33.0821 63.7772 33.0821 63.2332C33.0821 62.6652 33.1821 62.1252 33.3821 61.6132C33.5821 61.0932 33.8621 60.6332 34.2221 60.2332C34.5901 59.8252 35.0181 59.5052 35.5061 59.2732C35.9941 59.0332 36.5221 58.9132 37.0901 58.9132C37.6901 58.9132 38.2341 59.0372 38.7221 59.2852C39.2101 59.5332 39.6261 59.8652 39.9701 60.2812C40.3221 60.6972 40.5941 61.1612 40.7861 61.6732C40.9781 62.1852 41.0741 62.7092 41.0741 63.2452C41.0741 63.8132 40.9741 64.3572 40.7741 64.8772C40.5741 65.3892 40.2941 65.8492 39.9341 66.2572C39.5741 66.6572 39.1501 66.9732 38.6621 67.2052C38.1741 67.4372 37.6461 67.5532 37.0781 67.5532ZM33.9221 63.2332C33.9221 63.6972 33.9981 64.1452 34.1501 64.5772C34.3021 65.0012 34.5181 65.3812 34.7981 65.7172C35.0781 66.0452 35.4101 66.3092 35.7941 66.5092C36.1861 66.7012 36.6141 66.7972 37.0781 66.7972C37.5661 66.7972 38.0021 66.6972 38.3861 66.4972C38.7781 66.2892 39.1101 66.0172 39.3821 65.6812C39.6621 65.3372 39.8741 64.9532 40.0181 64.5292C40.1621 64.1052 40.2341 63.6732 40.2341 63.2332C40.2341 62.7692 40.1581 62.3252 40.0061 61.9012C39.8541 61.4772 39.6341 61.0972 39.3461 60.7612C39.0661 60.4252 38.7341 60.1612 38.3501 59.9692C37.9661 59.7772 37.5421 59.6812 37.0781 59.6812C36.5981 59.6812 36.1621 59.7812 35.7701 59.9812C35.3861 60.1812 35.0541 60.4532 34.7741 60.7972C34.5021 61.1332 34.2901 61.5132 34.1381 61.9372C33.9941 62.3612 33.9221 62.7932 33.9221 63.2332ZM42.6578 67.4932V58.9732H46.1858C46.5538 58.9732 46.8898 59.0492 47.1938 59.2012C47.5058 59.3532 47.7738 59.5612 47.9978 59.8252C48.2218 60.0812 48.3978 60.3692 48.5258 60.6892C48.6538 61.0012 48.7178 61.3212 48.7178 61.6492C48.7178 62.1132 48.6138 62.5532 48.4058 62.9692C48.2058 63.3772 47.9218 63.7092 47.5538 63.9652C47.1858 64.2212 46.7538 64.3492 46.2578 64.3492H43.4978V67.4932H42.6578ZM43.4978 63.6052H46.2218C46.5578 63.6052 46.8498 63.5132 47.0978 63.3292C47.3458 63.1452 47.5378 62.9052 47.6738 62.6092C47.8098 62.3132 47.8778 61.9932 47.8778 61.6492C47.8778 61.2972 47.7978 60.9732 47.6378 60.6772C47.4778 60.3812 47.2658 60.1492 47.0018 59.9812C46.7458 59.8052 46.4618 59.7172 46.1498 59.7172H43.4978V63.6052ZM52.1768 58.9732H52.8848L56.4248 67.4932H55.5368L54.4328 64.8292H50.6048L49.5128 67.4932H48.6128L52.1768 58.9732ZM54.2408 64.1692L52.5248 59.9572L50.7848 64.1692H54.2408ZM65.1941 67.4932V60.5572L62.1101 65.9452H61.5821L58.4861 60.5572V67.4932H57.6461V58.9732H58.5101L61.8341 64.8052L65.1821 58.9732H66.0341V67.4932H65.1941ZM68.1696 67.4932V58.9732H69.0096V67.4932H68.1696ZM71.9861 60.5212V67.4932H71.1461V58.9732H71.8421L77.4341 66.0772V58.9852H78.2741V67.4932H77.4941L71.9861 60.5212ZM86.1397 66.7492V67.4932H80.4157V58.9732H86.0317V59.7172H81.2557V62.7892H85.4197V63.4972H81.2557V66.7492H86.1397ZM90.7868 67.4932V58.9732H94.3868C94.7548 58.9732 95.0908 59.0492 95.3948 59.2012C95.6988 59.3532 95.9628 59.5612 96.1868 59.8252C96.4188 60.0812 96.5948 60.3692 96.7148 60.6892C96.8428 61.0012 96.9068 61.3212 96.9068 61.6492C96.9068 62.0572 96.8268 62.4412 96.6668 62.8012C96.5148 63.1612 96.2948 63.4652 96.0068 63.7132C95.7268 63.9612 95.3948 64.1252 95.0108 64.2052L97.0988 67.4932H96.1508L94.1468 64.3492H91.6268V67.4932H90.7868ZM91.6268 63.6052H94.4108C94.7468 63.6052 95.0388 63.5132 95.2868 63.3292C95.5348 63.1452 95.7268 62.9052 95.8628 62.6092C95.9988 62.3052 96.0668 61.9852 96.0668 61.6492C96.0668 61.3052 95.9868 60.9892 95.8268 60.7012C95.6748 60.4052 95.4668 60.1692 95.2028 59.9932C94.9468 59.8092 94.6588 59.7172 94.3388 59.7172H91.6268V63.6052ZM104.351 66.7492V67.4932H98.6266V58.9732H104.243V59.7172H99.4666V62.7892H103.631V63.4972H99.4666V66.7492H104.351ZM105.939 67.4932V58.9732H106.779V66.7492H111.699V67.4932H105.939ZM118.659 66.7492V67.4932H112.935V58.9732H118.551V59.7172H113.775V62.7892H117.939V63.4972H113.775V66.7492H118.659ZM122.888 58.9732H123.596L127.136 67.4932H126.248L125.144 64.8292H121.316L120.224 67.4932H119.324L122.888 58.9732ZM124.952 64.1692L123.236 59.9572L121.496 64.1692H124.952ZM133.22 60.5692C133.1 60.4332 132.96 60.3132 132.8 60.2092C132.64 60.0972 132.46 60.0012 132.26 59.9212C132.06 59.8412 131.844 59.7772 131.612 59.7292C131.388 59.6812 131.148 59.6572 130.892 59.6572C130.148 59.6572 129.6 59.8012 129.248 60.0892C128.904 60.3692 128.732 60.7532 128.732 61.2412C128.732 61.5772 128.812 61.8412 128.972 62.0332C129.14 62.2252 129.4 62.3812 129.752 62.5012C130.104 62.6212 130.552 62.7452 131.096 62.8732C131.704 63.0012 132.228 63.1532 132.668 63.3292C133.108 63.5052 133.448 63.7452 133.688 64.0492C133.928 64.3452 134.048 64.7492 134.048 65.2612C134.048 65.6532 133.972 65.9932 133.82 66.2812C133.668 66.5692 133.456 66.8092 133.184 67.0012C132.912 67.1932 132.588 67.3372 132.212 67.4332C131.836 67.5212 131.424 67.5652 130.976 67.5652C130.536 67.5652 130.112 67.5212 129.704 67.4332C129.304 67.3372 128.924 67.2012 128.564 67.0252C128.204 66.8412 127.868 66.6092 127.556 66.3292L127.976 65.6452C128.128 65.8052 128.308 65.9572 128.516 66.1012C128.732 66.2372 128.968 66.3612 129.224 66.4732C129.488 66.5852 129.768 66.6732 130.064 66.7372C130.368 66.7932 130.68 66.8212 131 66.8212C131.68 66.8212 132.208 66.6972 132.584 66.4492C132.968 66.2012 133.16 65.8332 133.16 65.3452C133.16 64.9932 133.064 64.7132 132.872 64.5052C132.68 64.2892 132.392 64.1132 132.008 63.9772C131.624 63.8412 131.152 63.7092 130.592 63.5812C130 63.4452 129.5 63.2932 129.092 63.1252C128.684 62.9572 128.376 62.7372 128.168 62.4652C127.968 62.1852 127.868 61.8172 127.868 61.3612C127.868 60.8332 127.996 60.3892 128.252 60.0292C128.516 59.6612 128.876 59.3852 129.332 59.2012C129.788 59.0092 130.312 58.9132 130.904 58.9132C131.28 58.9132 131.628 58.9532 131.948 59.0332C132.276 59.1052 132.576 59.2132 132.848 59.3572C133.128 59.5012 133.388 59.6812 133.628 59.8972L133.22 60.5692ZM141.253 66.7492V67.4932H135.529V58.9732H141.145V59.7172H136.369V62.7892H140.533V63.4972H136.369V66.7492H141.253Z" fill="black" fill-opacity="0.7"/>
<path d="M25.76 47.4932V31.8732H32.558C33.262 31.8732 33.9073 32.0198 34.494 32.3132C35.0807 32.6065 35.5867 32.9952 36.012 33.4792C36.452 33.9632 36.7893 34.5058 37.024 35.1072C37.2733 35.7085 37.398 36.3245 37.398 36.9552C37.398 37.6445 37.2733 38.3045 37.024 38.9352C36.7747 39.5658 36.4153 40.1085 35.946 40.5632C35.4913 41.0178 34.956 41.3478 34.34 41.5532L38.014 47.4932H35.242L31.854 42.0592H28.224V47.4932H25.76ZM28.224 39.8812H32.536C32.9907 39.8812 33.394 39.7492 33.746 39.4852C34.098 39.2212 34.3767 38.8692 34.582 38.4292C34.7873 37.9745 34.89 37.4832 34.89 36.9552C34.89 36.4125 34.7727 35.9285 34.538 35.5032C34.3033 35.0632 33.9953 34.7112 33.614 34.4472C33.2473 34.1832 32.844 34.0512 32.404 34.0512H28.224V39.8812ZM44.8457 47.7132C43.951 47.7132 43.137 47.5592 42.4037 47.2512C41.685 46.9285 41.0617 46.4958 40.5337 45.9532C40.0057 45.3958 39.595 44.7652 39.3017 44.0612C39.023 43.3425 38.8837 42.5798 38.8837 41.7732C38.8837 40.6878 39.133 39.6978 39.6317 38.8032C40.1304 37.8938 40.827 37.1678 41.7217 36.6252C42.6164 36.0678 43.665 35.7892 44.8677 35.7892C46.0704 35.7892 47.1044 36.0678 47.9697 36.6252C48.8497 37.1678 49.5317 37.8865 50.0157 38.7812C50.4997 39.6758 50.7417 40.6365 50.7417 41.6632C50.7417 41.8392 50.7344 42.0078 50.7197 42.1692C50.705 42.3158 50.6904 42.4405 50.6757 42.5432H41.4577C41.5017 43.2178 41.685 43.8118 42.0077 44.3252C42.345 44.8238 42.7704 45.2198 43.2837 45.5132C43.797 45.7918 44.347 45.9312 44.9337 45.9312C45.579 45.9312 46.1877 45.7698 46.7597 45.4472C47.3464 45.1245 47.7424 44.6992 47.9477 44.1712L50.0157 44.7652C49.7664 45.3225 49.385 45.8285 48.8717 46.2832C48.373 46.7232 47.779 47.0752 47.0897 47.3392C46.4004 47.5885 45.6524 47.7132 44.8457 47.7132ZM41.3917 40.9372H48.3437C48.2997 40.2772 48.109 39.6978 47.7717 39.1992C47.449 38.6858 47.031 38.2898 46.5177 38.0112C46.019 37.7178 45.4617 37.5712 44.8457 37.5712C44.2444 37.5712 43.687 37.7178 43.1737 38.0112C42.675 38.2898 42.2644 38.6858 41.9417 39.1992C41.619 39.6978 41.4357 40.2772 41.3917 40.9372ZM66.7374 35.9872H69.0474L64.2074 47.4932H62.1394L60.0714 42.3012L58.0034 47.4932H55.9354L51.0734 35.9872H53.3834L57.0794 45.1392L58.7074 40.8932L56.7274 36.0092H58.7734L60.0714 39.5952L61.3474 36.0092H63.3934L61.4354 40.8932L63.0634 45.1392L66.7374 35.9872ZM69.5398 44.1272C69.5398 43.3938 69.7452 42.7558 70.1558 42.2132C70.5812 41.6558 71.1605 41.2305 71.8938 40.9372C72.6272 40.6292 73.4778 40.4752 74.4458 40.4752C74.9592 40.4752 75.4798 40.5118 76.0078 40.5852C76.5505 40.6585 77.0272 40.7758 77.4378 40.9372V40.2112C77.4378 39.4045 77.1958 38.7738 76.7118 38.3192C76.2278 37.8645 75.5312 37.6372 74.6218 37.6372C73.9765 37.6372 73.3678 37.7545 72.7958 37.9892C72.2238 38.2092 71.6152 38.5245 70.9698 38.9352L70.1558 37.3072C70.9185 36.7938 71.6812 36.4125 72.4438 36.1632C73.2212 35.9138 74.0352 35.7892 74.8858 35.7892C76.4258 35.7892 77.6358 36.1998 78.5158 37.0212C79.4105 37.8278 79.8578 38.9792 79.8578 40.4752V44.7652C79.8578 45.0438 79.9018 45.2418 79.9898 45.3592C80.0925 45.4765 80.2612 45.5425 80.4958 45.5572V47.4932C80.2758 47.5372 80.0778 47.5665 79.9018 47.5812C79.7258 47.5958 79.5792 47.6032 79.4618 47.6032C78.9485 47.6032 78.5598 47.4785 78.2958 47.2292C78.0318 46.9798 77.8778 46.6865 77.8338 46.3492L77.7678 45.6892C77.2692 46.3345 76.6312 46.8332 75.8538 47.1852C75.0765 47.5372 74.2918 47.7132 73.4998 47.7132C72.7372 47.7132 72.0552 47.5592 71.4538 47.2512C70.8525 46.9285 70.3832 46.4958 70.0458 45.9532C69.7085 45.4105 69.5398 44.8018 69.5398 44.1272ZM76.8658 44.8312C77.0418 44.6405 77.1812 44.4498 77.2838 44.2592C77.3865 44.0685 77.4378 43.8998 77.4378 43.7532V42.4332C77.0272 42.2718 76.5945 42.1545 76.1398 42.0812C75.6852 41.9932 75.2378 41.9492 74.7978 41.9492C73.9178 41.9492 73.1992 42.1252 72.6418 42.4772C72.0992 42.8292 71.8278 43.3132 71.8278 43.9292C71.8278 44.2665 71.9158 44.5892 72.0918 44.8972C72.2825 45.2052 72.5465 45.4545 72.8838 45.6452C73.2358 45.8358 73.6685 45.9312 74.1818 45.9312C74.7098 45.9312 75.2158 45.8285 75.6998 45.6232C76.1838 45.4178 76.5725 45.1538 76.8658 44.8312ZM89.2618 38.0772C88.3231 38.0918 87.4871 38.3045 86.7538 38.7152C86.0351 39.1258 85.5218 39.7052 85.2138 40.4532V47.4932H82.7938V35.9872H85.0378V38.5612C85.4338 37.7692 85.9545 37.1385 86.5998 36.6692C87.2451 36.1852 87.9271 35.9212 88.6458 35.8772C88.7925 35.8772 88.9098 35.8772 88.9978 35.8772C89.1005 35.8772 89.1885 35.8845 89.2618 35.8992V38.0772ZM90.1244 41.7512C90.1244 40.6512 90.3444 39.6538 90.7844 38.7592C91.2391 37.8498 91.8551 37.1312 92.6324 36.6032C93.4098 36.0605 94.3044 35.7892 95.3164 35.7892C96.1964 35.7892 96.9884 36.0165 97.6924 36.4712C98.4111 36.9258 98.9684 37.4905 99.3644 38.1652V31.4332H101.784V44.7652C101.784 45.0438 101.836 45.2418 101.938 45.3592C102.041 45.4765 102.21 45.5425 102.444 45.5572V47.4932C101.99 47.5665 101.638 47.6032 101.388 47.6032C100.934 47.6032 100.545 47.4712 100.222 47.2072C99.9144 46.9432 99.7531 46.6278 99.7384 46.2612L99.7164 45.4032C99.2764 46.1365 98.6824 46.7085 97.9344 47.1192C97.1864 47.5152 96.4091 47.7132 95.6024 47.7132C94.8104 47.7132 94.0771 47.5592 93.4024 47.2512C92.7424 46.9432 92.1631 46.5105 91.6644 45.9532C91.1804 45.3958 90.7991 44.7578 90.5204 44.0392C90.2564 43.3205 90.1244 42.5578 90.1244 41.7512ZM99.3644 43.3572V40.3432C99.2031 39.8738 98.9391 39.4558 98.5724 39.0892C98.2204 38.7078 97.8171 38.4072 97.3624 38.1872C96.9224 37.9672 96.4824 37.8572 96.0424 37.8572C95.5291 37.8572 95.0598 37.9672 94.6344 38.1872C94.2238 38.4072 93.8644 38.7005 93.5564 39.0672C93.2631 39.4338 93.0358 39.8518 92.8744 40.3212C92.7131 40.7905 92.6324 41.2818 92.6324 41.7952C92.6324 42.3232 92.7204 42.8218 92.8964 43.2912C93.0724 43.7458 93.3218 44.1565 93.6444 44.5232C93.9818 44.8752 94.3631 45.1538 94.7884 45.3592C95.2284 45.5498 95.7051 45.6452 96.2184 45.6452C96.5411 45.6452 96.8638 45.5865 97.1864 45.4692C97.5238 45.3518 97.8391 45.1905 98.1324 44.9852C98.4404 44.7798 98.6971 44.5378 98.9024 44.2592C99.1224 43.9805 99.2764 43.6798 99.3644 43.3572Z" fill="black"/>
<path d="M409.77 310.573C409.77 309.62 409.939 308.688 410.276 307.779C410.613 306.855 411.105 306.019 411.75 305.271C412.41 304.508 413.209 303.907 414.148 303.467C415.087 303.012 416.15 302.785 417.338 302.785C418.746 302.785 419.963 303.108 420.99 303.753C422.017 304.384 422.779 305.198 423.278 306.195L421.342 307.493C421.049 306.862 420.675 306.364 420.22 305.997C419.78 305.63 419.296 305.374 418.768 305.227C418.255 305.08 417.749 305.007 417.25 305.007C416.429 305.007 415.71 305.176 415.094 305.513C414.478 305.836 413.957 306.268 413.532 306.811C413.121 307.354 412.806 307.962 412.586 308.637C412.381 309.312 412.278 309.986 412.278 310.661C412.278 311.409 412.403 312.135 412.652 312.839C412.901 313.528 413.246 314.144 413.686 314.687C414.141 315.215 414.676 315.633 415.292 315.941C415.908 316.249 416.583 316.403 417.316 316.403C417.815 316.403 418.335 316.315 418.878 316.139C419.421 315.963 419.919 315.692 420.374 315.325C420.843 314.944 421.21 314.445 421.474 313.829L423.52 314.995C423.197 315.772 422.691 316.432 422.002 316.975C421.327 317.518 420.565 317.928 419.714 318.207C418.878 318.486 418.049 318.625 417.228 318.625C416.128 318.625 415.123 318.398 414.214 317.943C413.305 317.474 412.52 316.858 411.86 316.095C411.2 315.318 410.687 314.452 410.32 313.499C409.953 312.531 409.77 311.556 409.77 310.573ZM431.959 309.077C431.02 309.092 430.184 309.304 429.451 309.715C428.732 310.126 428.219 310.705 427.911 311.453V318.493H425.491V306.987H427.735V309.561C428.131 308.769 428.652 308.138 429.297 307.669C429.942 307.185 430.624 306.921 431.343 306.877C431.49 306.877 431.607 306.877 431.695 306.877C431.798 306.877 431.886 306.884 431.959 306.899V309.077ZM432.862 315.127C432.862 314.394 433.067 313.756 433.478 313.213C433.903 312.656 434.483 312.23 435.216 311.937C435.949 311.629 436.8 311.475 437.768 311.475C438.281 311.475 438.802 311.512 439.33 311.585C439.873 311.658 440.349 311.776 440.76 311.937V311.211C440.76 310.404 440.518 309.774 440.034 309.319C439.55 308.864 438.853 308.637 437.944 308.637C437.299 308.637 436.69 308.754 436.118 308.989C435.546 309.209 434.937 309.524 434.292 309.935L433.478 308.307C434.241 307.794 435.003 307.412 435.766 307.163C436.543 306.914 437.357 306.789 438.208 306.789C439.748 306.789 440.958 307.2 441.838 308.021C442.733 308.828 443.18 309.979 443.18 311.475V315.765C443.18 316.044 443.224 316.242 443.312 316.359C443.415 316.476 443.583 316.542 443.818 316.557V318.493C443.598 318.537 443.4 318.566 443.224 318.581C443.048 318.596 442.901 318.603 442.784 318.603C442.271 318.603 441.882 318.478 441.618 318.229C441.354 317.98 441.2 317.686 441.156 317.349L441.09 316.689C440.591 317.334 439.953 317.833 439.176 318.185C438.399 318.537 437.614 318.713 436.822 318.713C436.059 318.713 435.377 318.559 434.776 318.251C434.175 317.928 433.705 317.496 433.368 316.953C433.031 316.41 432.862 315.802 432.862 315.127ZM440.188 315.831C440.364 315.64 440.503 315.45 440.606 315.259C440.709 315.068 440.76 314.9 440.76 314.753V313.433C440.349 313.272 439.917 313.154 439.462 313.081C439.007 312.993 438.56 312.949 438.12 312.949C437.24 312.949 436.521 313.125 435.964 313.477C435.421 313.829 435.15 314.313 435.15 314.929C435.15 315.266 435.238 315.589 435.414 315.897C435.605 316.205 435.869 316.454 436.206 316.645C436.558 316.836 436.991 316.931 437.504 316.931C438.032 316.931 438.538 316.828 439.022 316.623C439.506 316.418 439.895 316.154 440.188 315.831ZM448.941 318.493L444.563 306.987H447.071L450.349 316.249L453.627 306.987H455.959L451.581 318.493H448.941ZM457.696 318.493V306.987H460.116V318.493H457.696ZM457.696 305.095V302.433H460.116V305.095H457.696ZM473.342 318.493H470.922V312.047C470.922 310.976 470.746 310.192 470.394 309.693C470.057 309.194 469.551 308.945 468.876 308.945C468.407 308.945 467.938 309.062 467.468 309.297C467.014 309.532 466.603 309.854 466.236 310.265C465.87 310.661 465.606 311.123 465.444 311.651V318.493H463.024V306.987H465.224V309.297C465.518 308.784 465.899 308.344 466.368 307.977C466.852 307.596 467.395 307.302 467.996 307.097C468.598 306.892 469.236 306.789 469.91 306.789C470.6 306.789 471.164 306.914 471.604 307.163C472.059 307.412 472.411 307.757 472.66 308.197C472.924 308.622 473.1 309.121 473.188 309.693C473.291 310.25 473.342 310.844 473.342 311.475V318.493ZM480.705 318.603C479.928 318.603 479.217 318.449 478.571 318.141C477.926 317.818 477.369 317.386 476.899 316.843C476.445 316.3 476.085 315.677 475.821 314.973C475.572 314.269 475.447 313.528 475.447 312.751C475.447 311.93 475.579 311.16 475.843 310.441C476.107 309.722 476.474 309.092 476.943 308.549C477.427 307.992 477.992 307.559 478.637 307.251C479.283 306.943 480.001 306.789 480.793 306.789C481.717 306.789 482.524 307.009 483.213 307.449C483.917 307.889 484.497 308.461 484.951 309.165V306.987H487.085V318.163C487.085 319.278 486.814 320.224 486.271 321.001C485.743 321.778 485.017 322.372 484.093 322.783C483.169 323.194 482.128 323.399 480.969 323.399C479.693 323.399 478.637 323.179 477.801 322.739C476.965 322.299 476.254 321.698 475.667 320.935L477.031 319.659C477.471 320.275 478.036 320.744 478.725 321.067C479.429 321.39 480.177 321.551 480.969 321.551C481.629 321.551 482.238 321.426 482.795 321.177C483.367 320.942 483.822 320.568 484.159 320.055C484.497 319.556 484.665 318.926 484.665 318.163V316.403C484.255 317.092 483.69 317.635 482.971 318.031C482.253 318.412 481.497 318.603 480.705 318.603ZM481.497 316.645C481.864 316.645 482.216 316.586 482.553 316.469C482.891 316.337 483.199 316.168 483.477 315.963C483.771 315.743 484.02 315.501 484.225 315.237C484.431 314.958 484.577 314.665 484.665 314.357V311.343C484.475 310.844 484.203 310.412 483.851 310.045C483.499 309.664 483.103 309.37 482.663 309.165C482.223 308.96 481.776 308.857 481.321 308.857C480.793 308.857 480.317 308.974 479.891 309.209C479.481 309.429 479.129 309.73 478.835 310.111C478.542 310.478 478.315 310.896 478.153 311.365C477.992 311.834 477.911 312.318 477.911 312.817C477.911 313.345 477.999 313.836 478.175 314.291C478.366 314.746 478.623 315.156 478.945 315.523C479.268 315.875 479.649 316.154 480.089 316.359C480.529 316.55 480.999 316.645 481.497 316.645Z" fill="black"/>
<path d="M257.651 323.517C259.329 323.814 260.93 322.695 261.227 321.017C261.524 319.34 260.405 317.739 258.727 317.442L258.189 320.48L257.651 323.517ZM243.685 317.911L243.147 320.949L243.147 320.949L243.685 317.911ZM137.224 195.162C135.937 194.046 133.988 194.185 132.872 195.472L114.683 216.449C113.567 217.737 113.706 219.685 114.993 220.801C116.28 221.917 118.229 221.779 119.345 220.492L135.513 201.845L154.159 218.013C155.447 219.129 157.395 218.991 158.511 217.703C159.627 216.416 159.489 214.468 158.201 213.351L137.224 195.162ZM258.189 320.48L258.727 317.442L244.223 314.873L243.685 317.911L243.147 320.949L257.651 323.517L258.189 320.48ZM243.685 317.911L244.223 314.873C186.131 304.586 142.47 256.121 138.28 197.274L135.203 197.493L132.126 197.712C136.516 259.38 182.27 310.169 243.147 320.949L243.685 317.911Z" fill="#C7C7C7"/>
<path d="M407.047 195.882C407.261 194.192 406.065 192.647 404.375 192.433C402.685 192.218 401.141 193.414 400.926 195.104L403.986 195.493L407.047 195.882ZM402.621 206.239L399.561 205.851V205.851L402.621 206.239ZM278.72 316.401C277.572 317.66 277.662 319.611 278.921 320.759L299.439 339.466C300.698 340.614 302.649 340.524 303.797 339.264C304.945 338.005 304.855 336.054 303.596 334.906L285.358 318.278L301.986 300.041C303.134 298.782 303.044 296.83 301.785 295.682C300.526 294.535 298.575 294.625 297.427 295.884L278.72 316.401ZM403.986 195.493L400.926 195.104L399.561 205.851L402.621 206.239L405.682 206.628L407.047 195.882L403.986 195.493ZM402.621 206.239L399.561 205.851C391.876 266.363 341.791 312.585 280.858 315.398L281 318.48L281.142 321.561C345.071 318.61 397.619 270.115 405.682 206.628L402.621 206.239Z" fill="#C7C7C7"/>
<path d="M281.468 46.647C279.784 46.3886 278.209 47.5444 277.951 49.2285C277.692 50.9126 278.848 52.4873 280.532 52.7456L281 49.6963L281.468 46.647ZM292.798 51.5064L292.33 54.5557L292.798 51.5064ZM401.954 175.004C403.236 176.126 405.185 175.997 406.308 174.715L424.596 153.824C425.718 152.542 425.589 150.593 424.307 149.471C423.025 148.349 421.076 148.478 419.954 149.76L403.697 168.329L385.128 152.073C383.846 150.951 381.897 151.08 380.774 152.362C379.652 153.644 379.782 155.593 381.064 156.715L401.954 175.004ZM281 49.6963L280.532 52.7456L292.33 54.5557L292.798 51.5064L293.266 48.457L281.468 46.647L281 49.6963ZM292.798 51.5064L292.33 54.5557C351.783 63.677 396.922 112.871 400.908 172.887L403.986 172.683L407.065 172.478C402.887 109.576 355.577 58.017 293.266 48.457L292.798 51.5064Z" fill="#C7C7C7"/>
<path d="M133.145 172.275C132.92 173.963 134.106 175.515 135.795 175.74C137.484 175.966 139.036 174.779 139.261 173.09L136.203 172.682L133.145 172.275ZM137.221 165.054L134.163 164.646L134.163 164.646L137.221 165.054ZM261.532 51.7035C262.641 50.4097 262.491 48.4622 261.197 47.3535L240.114 29.2869C238.82 28.1782 236.873 28.3283 235.764 29.622C234.655 30.9158 234.805 32.8633 236.099 33.972L254.839 50.0312L238.78 68.7716C237.672 70.0654 237.822 72.0129 239.115 73.1216C240.409 74.2303 242.357 74.0802 243.465 72.7864L261.532 51.7035ZM136.203 172.682L139.261 173.09L140.278 165.461L137.221 165.054L134.163 164.646L133.145 172.275L136.203 172.682ZM137.221 165.054L140.278 165.461C148.412 104.481 198.088 57.4979 259.426 52.7719L259.189 49.6961L258.952 46.6202C194.709 51.5699 142.681 100.778 134.163 164.646L137.221 165.054Z" fill="#C7C7C7"/>
<path d="M216.102 162.888H212.196V173H210.326V162.888H206.404V161.249H216.102V162.888ZM216.629 175.036C216.794 175.058 216.954 175.08 217.109 175.102C217.274 175.135 217.407 175.152 217.506 175.152C217.694 175.152 217.854 175.091 217.986 174.969C218.13 174.859 218.273 174.649 218.416 174.341C218.56 174.032 218.736 173.585 218.946 173L215.388 164.344H217.291L219.939 171.146L222.289 164.344H224.043L220.121 175.003C220 175.323 219.823 175.615 219.591 175.88C219.36 176.156 219.073 176.371 218.731 176.525C218.389 176.68 217.986 176.757 217.523 176.757C217.39 176.757 217.252 176.746 217.109 176.724C216.966 176.702 216.806 176.669 216.629 176.624V175.036ZM230.297 173.166C229.602 173.166 228.99 173 228.46 172.669C227.931 172.338 227.511 171.908 227.202 171.378V176.525H225.382V164.344H226.987V165.9C227.318 165.381 227.749 164.968 228.278 164.659C228.808 164.35 229.398 164.195 230.049 164.195C230.645 164.195 231.191 164.317 231.687 164.559C232.184 164.791 232.614 165.117 232.978 165.536C233.342 165.955 233.624 166.435 233.822 166.976C234.032 167.505 234.137 168.068 234.137 168.664C234.137 169.491 233.971 170.247 233.64 170.931C233.32 171.615 232.868 172.161 232.283 172.57C231.709 172.967 231.047 173.166 230.297 173.166ZM229.701 171.61C230.088 171.61 230.435 171.527 230.744 171.362C231.064 171.196 231.334 170.975 231.555 170.7C231.787 170.424 231.963 170.109 232.085 169.756C232.206 169.403 232.267 169.039 232.267 168.664C232.267 168.267 232.2 167.892 232.068 167.539C231.936 167.185 231.743 166.877 231.489 166.612C231.246 166.347 230.959 166.137 230.628 165.983C230.308 165.828 229.955 165.751 229.569 165.751C229.337 165.751 229.095 165.795 228.841 165.884C228.587 165.972 228.35 166.093 228.129 166.248C227.909 166.402 227.715 166.584 227.55 166.794C227.384 167.003 227.269 167.224 227.202 167.456V169.723C227.357 170.076 227.561 170.396 227.815 170.683C228.068 170.959 228.361 171.185 228.692 171.362C229.023 171.527 229.359 171.61 229.701 171.61ZM235.774 173V164.344H237.595V173H235.774ZM235.774 162.921V160.919H237.595V162.921H235.774ZM243.705 173.166C243.032 173.166 242.419 173.05 241.868 172.818C241.327 172.575 240.858 172.244 240.461 171.825C240.064 171.406 239.755 170.926 239.534 170.385C239.324 169.844 239.22 169.271 239.22 168.664C239.22 167.847 239.402 167.103 239.766 166.43C240.141 165.757 240.659 165.216 241.321 164.808C241.994 164.4 242.789 164.195 243.705 164.195C244.587 164.195 245.354 164.394 246.005 164.791C246.667 165.177 247.153 165.696 247.462 166.347L245.691 166.91C245.492 166.545 245.211 166.264 244.847 166.066C244.494 165.856 244.102 165.751 243.672 165.751C243.186 165.751 242.745 165.878 242.348 166.132C241.961 166.374 241.652 166.717 241.421 167.158C241.2 167.588 241.09 168.09 241.09 168.664C241.09 169.216 241.206 169.718 241.437 170.17C241.669 170.611 241.978 170.964 242.364 171.229C242.761 171.483 243.203 171.61 243.688 171.61C243.986 171.61 244.273 171.56 244.549 171.461C244.836 171.351 245.084 171.207 245.293 171.031C245.503 170.843 245.652 170.639 245.74 170.418L247.528 170.948C247.34 171.378 247.059 171.759 246.684 172.09C246.32 172.421 245.884 172.686 245.376 172.884C244.88 173.072 244.323 173.166 243.705 173.166ZM248.398 170.468C248.398 169.916 248.553 169.436 248.862 169.028C249.182 168.609 249.617 168.289 250.169 168.068C250.721 167.836 251.361 167.721 252.089 167.721C252.475 167.721 252.867 167.748 253.264 167.803C253.672 167.858 254.031 167.947 254.34 168.068V167.522C254.34 166.915 254.158 166.441 253.793 166.099C253.429 165.757 252.905 165.586 252.221 165.586C251.736 165.586 251.278 165.674 250.848 165.85C250.417 166.016 249.959 166.253 249.474 166.562L248.862 165.337C249.435 164.951 250.009 164.664 250.583 164.477C251.168 164.289 251.78 164.195 252.42 164.195C253.578 164.195 254.489 164.504 255.151 165.122C255.824 165.729 256.16 166.595 256.16 167.721V170.948C256.16 171.157 256.193 171.306 256.259 171.395C256.337 171.483 256.464 171.533 256.64 171.544V173C256.475 173.033 256.326 173.055 256.193 173.066C256.061 173.077 255.95 173.083 255.862 173.083C255.476 173.083 255.184 172.989 254.985 172.801C254.786 172.614 254.671 172.393 254.637 172.139L254.588 171.643C254.213 172.128 253.733 172.503 253.148 172.768C252.563 173.033 251.973 173.166 251.377 173.166C250.803 173.166 250.29 173.05 249.838 172.818C249.386 172.575 249.033 172.25 248.779 171.842C248.525 171.433 248.398 170.975 248.398 170.468ZM253.909 170.997C254.042 170.854 254.147 170.711 254.224 170.567C254.301 170.424 254.34 170.297 254.34 170.187V169.194C254.031 169.072 253.705 168.984 253.363 168.929C253.021 168.863 252.685 168.829 252.354 168.829C251.692 168.829 251.151 168.962 250.732 169.227C250.323 169.491 250.119 169.856 250.119 170.319C250.119 170.573 250.186 170.815 250.318 171.047C250.461 171.279 250.66 171.466 250.914 171.61C251.179 171.753 251.504 171.825 251.89 171.825C252.287 171.825 252.668 171.748 253.032 171.593C253.396 171.439 253.689 171.24 253.909 170.997ZM258.385 160.919H260.206V170.501C260.206 170.942 260.272 171.224 260.404 171.345C260.537 171.466 260.702 171.527 260.901 171.527C261.122 171.527 261.326 171.505 261.513 171.461C261.712 171.417 261.883 171.362 262.026 171.295L262.291 172.735C262.026 172.846 261.712 172.939 261.348 173.017C260.984 173.094 260.658 173.132 260.371 173.132C259.753 173.132 259.268 172.961 258.915 172.619C258.562 172.266 258.385 171.781 258.385 171.163V160.919ZM266.421 168.68C266.421 167.853 266.586 167.103 266.917 166.43C267.259 165.746 267.723 165.205 268.308 164.808C268.892 164.4 269.565 164.195 270.327 164.195C270.989 164.195 271.584 164.366 272.114 164.708C272.655 165.05 273.074 165.475 273.372 165.983V160.919H275.192V170.948C275.192 171.157 275.231 171.306 275.308 171.395C275.385 171.483 275.512 171.533 275.689 171.544V173C275.347 173.055 275.082 173.083 274.894 173.083C274.552 173.083 274.26 172.983 274.017 172.785C273.786 172.586 273.664 172.349 273.653 172.073L273.637 171.428C273.306 171.979 272.859 172.41 272.296 172.719C271.733 173.017 271.149 173.166 270.542 173.166C269.946 173.166 269.394 173.05 268.887 172.818C268.39 172.586 267.954 172.261 267.579 171.842C267.215 171.422 266.928 170.942 266.719 170.402C266.52 169.861 266.421 169.287 266.421 168.68ZM273.372 169.889V167.621C273.25 167.268 273.052 166.954 272.776 166.678C272.511 166.391 272.208 166.165 271.866 165.999C271.535 165.834 271.204 165.751 270.873 165.751C270.487 165.751 270.134 165.834 269.814 165.999C269.505 166.165 269.234 166.386 269.003 166.661C268.782 166.937 268.611 167.252 268.49 167.605C268.368 167.958 268.308 168.327 268.308 168.714C268.308 169.111 268.374 169.486 268.506 169.839C268.639 170.181 268.826 170.49 269.069 170.766C269.323 171.031 269.609 171.24 269.929 171.395C270.26 171.538 270.619 171.61 271.005 171.61C271.248 171.61 271.491 171.566 271.733 171.477C271.987 171.389 272.224 171.268 272.445 171.113C272.677 170.959 272.87 170.777 273.024 170.567C273.19 170.358 273.306 170.131 273.372 169.889ZM282.37 165.917C281.664 165.928 281.035 166.088 280.484 166.397C279.943 166.705 279.557 167.141 279.325 167.704V173H277.505V164.344H279.193V166.281C279.491 165.685 279.882 165.21 280.368 164.857C280.853 164.493 281.366 164.295 281.907 164.262C282.017 164.262 282.106 164.262 282.172 164.262C282.249 164.262 282.315 164.267 282.37 164.278V165.917ZM283.695 173V164.344H285.515V173H283.695ZM283.695 162.921V160.919H285.515V162.921H283.695ZM295.465 173H293.644V168.151C293.644 167.345 293.512 166.755 293.247 166.38C292.993 166.005 292.613 165.817 292.105 165.817C291.752 165.817 291.399 165.906 291.046 166.082C290.704 166.259 290.395 166.501 290.119 166.81C289.843 167.108 289.645 167.456 289.523 167.853V173H287.703V164.344H289.358V166.082C289.579 165.696 289.866 165.365 290.219 165.089C290.583 164.802 290.991 164.582 291.443 164.427C291.896 164.273 292.376 164.195 292.883 164.195C293.402 164.195 293.826 164.289 294.157 164.477C294.5 164.664 294.764 164.924 294.952 165.255C295.15 165.575 295.283 165.95 295.349 166.38C295.426 166.799 295.465 167.246 295.465 167.721V173ZM303.602 173L300.822 169.011L299.399 170.369V173H297.578V160.919H299.399V168.532L303.404 164.361H305.357L301.997 167.985L305.539 173H303.602ZM306.645 173V164.344H308.465V173H306.645ZM306.645 162.921V160.919H308.465V162.921H306.645ZM318.415 173H316.595V168.151C316.595 167.345 316.462 166.755 316.197 166.38C315.944 166.005 315.563 165.817 315.055 165.817C314.702 165.817 314.349 165.906 313.996 166.082C313.654 166.259 313.345 166.501 313.069 166.81C312.794 167.108 312.595 167.456 312.474 167.853V173H310.653V164.344H312.308V166.082C312.529 165.696 312.816 165.365 313.169 165.089C313.533 164.802 313.941 164.582 314.393 164.427C314.846 164.273 315.326 164.195 315.833 164.195C316.352 164.195 316.777 164.289 317.108 164.477C317.45 164.664 317.715 164.924 317.902 165.255C318.101 165.575 318.233 165.95 318.299 166.38C318.377 166.799 318.415 167.246 318.415 167.721V173ZM323.954 173.083C323.369 173.083 322.834 172.967 322.349 172.735C321.863 172.492 321.444 172.167 321.091 171.759C320.749 171.351 320.479 170.882 320.28 170.352C320.092 169.822 319.999 169.265 319.999 168.68C319.999 168.063 320.098 167.483 320.297 166.943C320.495 166.402 320.771 165.928 321.124 165.519C321.488 165.1 321.913 164.775 322.398 164.543C322.884 164.311 323.424 164.195 324.02 164.195C324.715 164.195 325.322 164.361 325.841 164.692C326.37 165.023 326.806 165.453 327.148 165.983V164.344H328.754V172.752C328.754 173.59 328.549 174.302 328.141 174.887C327.744 175.471 327.198 175.918 326.503 176.227C325.808 176.536 325.024 176.691 324.153 176.691C323.193 176.691 322.398 176.525 321.769 176.194C321.141 175.863 320.605 175.411 320.164 174.837L321.19 173.877C321.521 174.341 321.946 174.694 322.465 174.936C322.994 175.179 323.557 175.3 324.153 175.3C324.649 175.3 325.107 175.207 325.526 175.019C325.957 174.843 326.299 174.561 326.552 174.175C326.806 173.8 326.933 173.325 326.933 172.752V171.428C326.624 171.946 326.199 172.355 325.659 172.652C325.118 172.939 324.55 173.083 323.954 173.083ZM324.55 171.61C324.826 171.61 325.09 171.566 325.344 171.477C325.598 171.378 325.83 171.251 326.039 171.097C326.26 170.931 326.448 170.749 326.602 170.551C326.757 170.341 326.867 170.12 326.933 169.889V167.621C326.79 167.246 326.586 166.921 326.321 166.645C326.056 166.358 325.758 166.137 325.427 165.983C325.096 165.828 324.759 165.751 324.417 165.751C324.02 165.751 323.662 165.839 323.342 166.016C323.033 166.181 322.768 166.408 322.547 166.694C322.327 166.97 322.156 167.285 322.034 167.638C321.913 167.991 321.852 168.355 321.852 168.73C321.852 169.127 321.918 169.497 322.051 169.839C322.194 170.181 322.387 170.49 322.63 170.766C322.873 171.031 323.16 171.24 323.491 171.395C323.822 171.538 324.175 171.61 324.55 171.61ZM237.322 193H235.501V188.151C235.501 187.367 235.358 186.783 235.071 186.397C234.784 186.01 234.381 185.817 233.863 185.817C233.543 185.817 233.212 185.906 232.87 186.082C232.528 186.259 232.224 186.501 231.96 186.81C231.695 187.108 231.502 187.456 231.38 187.853V193H229.56V180.919H231.38V186.082C231.711 185.497 232.164 185.039 232.737 184.708C233.311 184.366 233.929 184.195 234.591 184.195C235.132 184.195 235.578 184.289 235.932 184.477C236.285 184.664 236.56 184.924 236.759 185.255C236.969 185.575 237.112 185.95 237.189 186.38C237.278 186.799 237.322 187.246 237.322 187.721V193ZM238.806 190.468C238.806 189.916 238.96 189.436 239.269 189.028C239.589 188.609 240.025 188.289 240.577 188.068C241.128 187.836 241.768 187.721 242.497 187.721C242.883 187.721 243.274 187.748 243.672 187.803C244.08 187.858 244.438 187.947 244.747 188.068V187.522C244.747 186.915 244.565 186.441 244.201 186.099C243.837 185.757 243.313 185.586 242.629 185.586C242.144 185.586 241.686 185.674 241.255 185.85C240.825 186.016 240.367 186.253 239.882 186.562L239.269 185.337C239.843 184.951 240.417 184.664 240.991 184.477C241.575 184.289 242.188 184.195 242.828 184.195C243.986 184.195 244.896 184.504 245.558 185.122C246.231 185.729 246.568 186.595 246.568 187.721V190.948C246.568 191.157 246.601 191.306 246.667 191.395C246.744 191.483 246.871 191.533 247.048 191.544V193C246.882 193.033 246.733 193.055 246.601 193.066C246.469 193.077 246.358 193.083 246.27 193.083C245.884 193.083 245.591 192.989 245.393 192.801C245.194 192.614 245.078 192.393 245.045 192.139L244.996 191.643C244.62 192.128 244.141 192.503 243.556 192.768C242.971 193.033 242.381 193.166 241.785 193.166C241.211 193.166 240.698 193.05 240.246 192.818C239.793 192.575 239.44 192.25 239.187 191.842C238.933 191.433 238.806 190.975 238.806 190.468ZM244.317 190.997C244.449 190.854 244.554 190.711 244.632 190.567C244.709 190.424 244.747 190.297 244.747 190.187V189.194C244.438 189.072 244.113 188.984 243.771 188.929C243.429 188.863 243.092 188.829 242.761 188.829C242.099 188.829 241.559 188.962 241.139 189.227C240.731 189.491 240.527 189.856 240.527 190.319C240.527 190.573 240.593 190.815 240.726 191.047C240.869 191.279 241.068 191.466 241.322 191.61C241.586 191.753 241.912 191.825 242.298 191.825C242.695 191.825 243.076 191.748 243.44 191.593C243.804 191.439 244.096 191.24 244.317 190.997ZM253.444 193.166C252.782 193.166 252.18 193.011 251.64 192.702C251.11 192.382 250.691 191.957 250.382 191.428V193H248.777V180.919H250.597V185.983C250.939 185.431 251.364 184.995 251.871 184.675C252.39 184.355 252.997 184.195 253.692 184.195C254.266 184.195 254.79 184.317 255.264 184.559C255.739 184.802 256.141 185.133 256.472 185.553C256.814 185.972 257.074 186.452 257.25 186.992C257.438 187.533 257.531 188.107 257.531 188.714C257.531 189.32 257.427 189.894 257.217 190.435C257.018 190.975 256.732 191.45 256.356 191.858C255.981 192.266 255.545 192.586 255.049 192.818C254.564 193.05 254.028 193.166 253.444 193.166ZM252.964 191.61C253.361 191.61 253.725 191.533 254.056 191.378C254.387 191.213 254.674 190.997 254.917 190.733C255.159 190.468 255.341 190.159 255.463 189.806C255.595 189.453 255.661 189.089 255.661 188.714C255.661 188.195 255.551 187.71 255.33 187.257C255.121 186.805 254.823 186.441 254.437 186.165C254.05 185.889 253.604 185.751 253.096 185.751C252.732 185.751 252.39 185.839 252.07 186.016C251.75 186.181 251.463 186.408 251.209 186.694C250.967 186.97 250.763 187.279 250.597 187.621V189.905C250.663 190.159 250.779 190.391 250.945 190.6C251.11 190.799 251.303 190.975 251.524 191.13C251.744 191.273 251.982 191.389 252.235 191.477C252.489 191.566 252.732 191.61 252.964 191.61ZM259.169 193V184.344H260.989V193H259.169ZM259.169 182.921V180.919H260.989V182.921H259.169ZM267.993 192.553C267.839 192.63 267.645 192.713 267.414 192.801C267.182 192.89 266.917 192.967 266.619 193.033C266.333 193.099 266.035 193.132 265.726 193.132C265.351 193.132 265.003 193.066 264.683 192.934C264.363 192.801 264.104 192.592 263.905 192.305C263.718 192.007 263.624 191.626 263.624 191.163V185.751H262.482V184.344H263.624V181.498H265.444V184.344H267.331V185.751H265.444V190.584C265.466 190.882 265.56 191.102 265.726 191.246C265.902 191.389 266.117 191.461 266.371 191.461C266.625 191.461 266.868 191.417 267.099 191.328C267.331 191.24 267.502 191.168 267.612 191.113L267.993 192.553ZM273.359 180.919H275.18V190.501C275.18 190.942 275.246 191.224 275.379 191.345C275.511 191.466 275.676 191.527 275.875 191.527C276.096 191.527 276.3 191.505 276.487 191.461C276.686 191.417 276.857 191.362 277 191.295L277.265 192.735C277 192.846 276.686 192.939 276.322 193.017C275.958 193.094 275.632 193.132 275.345 193.132C274.728 193.132 274.242 192.961 273.889 192.619C273.536 192.266 273.359 191.781 273.359 191.163V180.919ZM282.21 193.166C281.526 193.166 280.914 193.05 280.373 192.818C279.832 192.575 279.364 192.244 278.966 191.825C278.58 191.406 278.282 190.931 278.073 190.402C277.863 189.861 277.758 189.287 277.758 188.68C277.758 188.074 277.863 187.5 278.073 186.959C278.282 186.419 278.58 185.944 278.966 185.536C279.364 185.117 279.832 184.791 280.373 184.559C280.925 184.317 281.537 184.195 282.21 184.195C282.883 184.195 283.49 184.317 284.031 184.559C284.582 184.791 285.051 185.117 285.437 185.536C285.835 185.944 286.138 186.419 286.348 186.959C286.557 187.5 286.662 188.074 286.662 188.68C286.662 189.287 286.557 189.861 286.348 190.402C286.138 190.931 285.835 191.406 285.437 191.825C285.051 192.244 284.582 192.575 284.031 192.818C283.49 193.05 282.883 193.166 282.21 193.166ZM279.628 188.697C279.628 189.249 279.744 189.745 279.976 190.187C280.208 190.628 280.516 190.975 280.903 191.229C281.289 191.483 281.725 191.61 282.21 191.61C282.685 191.61 283.115 191.483 283.501 191.229C283.898 190.964 284.213 190.611 284.444 190.17C284.676 189.718 284.792 189.221 284.792 188.68C284.792 188.129 284.676 187.632 284.444 187.191C284.213 186.75 283.898 186.402 283.501 186.148C283.115 185.883 282.685 185.751 282.21 185.751C281.725 185.751 281.289 185.883 280.903 186.148C280.516 186.413 280.208 186.766 279.976 187.207C279.744 187.638 279.628 188.134 279.628 188.697ZM292.166 193.166C291.482 193.166 290.87 193.05 290.329 192.818C289.788 192.575 289.319 192.244 288.922 191.825C288.536 191.406 288.238 190.931 288.028 190.402C287.819 189.861 287.714 189.287 287.714 188.68C287.714 188.074 287.819 187.5 288.028 186.959C288.238 186.419 288.536 185.944 288.922 185.536C289.319 185.117 289.788 184.791 290.329 184.559C290.881 184.317 291.493 184.195 292.166 184.195C292.839 184.195 293.446 184.317 293.986 184.559C294.538 184.791 295.007 185.117 295.393 185.536C295.79 185.944 296.094 186.419 296.303 186.959C296.513 187.5 296.618 188.074 296.618 188.68C296.618 189.287 296.513 189.861 296.303 190.402C296.094 190.931 295.79 191.406 295.393 191.825C295.007 192.244 294.538 192.575 293.986 192.818C293.446 193.05 292.839 193.166 292.166 193.166ZM289.584 188.697C289.584 189.249 289.7 189.745 289.932 190.187C290.163 190.628 290.472 190.975 290.859 191.229C291.245 191.483 291.681 191.61 292.166 191.61C292.64 191.61 293.071 191.483 293.457 191.229C293.854 190.964 294.169 190.611 294.4 190.17C294.632 189.718 294.748 189.221 294.748 188.68C294.748 188.129 294.632 187.632 294.4 187.191C294.169 186.75 293.854 186.402 293.457 186.148C293.071 185.883 292.64 185.751 292.166 185.751C291.681 185.751 291.245 185.883 290.859 186.148C290.472 186.413 290.163 186.766 289.932 187.207C289.7 187.638 289.584 188.134 289.584 188.697ZM303.148 193.166C302.453 193.166 301.84 193 301.311 192.669C300.781 192.338 300.362 191.908 300.053 191.378V196.525H298.233V184.344H299.838V185.9C300.169 185.381 300.599 184.968 301.129 184.659C301.658 184.35 302.249 184.195 302.9 184.195C303.495 184.195 304.042 184.317 304.538 184.559C305.035 184.791 305.465 185.117 305.829 185.536C306.193 185.955 306.474 186.435 306.673 186.976C306.883 187.505 306.988 188.068 306.988 188.664C306.988 189.491 306.822 190.247 306.491 190.931C306.171 191.615 305.719 192.161 305.134 192.57C304.56 192.967 303.898 193.166 303.148 193.166ZM302.552 191.61C302.938 191.61 303.286 191.527 303.595 191.362C303.915 191.196 304.185 190.975 304.406 190.7C304.637 190.424 304.814 190.109 304.935 189.756C305.057 189.403 305.117 189.039 305.117 188.664C305.117 188.267 305.051 187.892 304.919 187.539C304.786 187.185 304.593 186.877 304.34 186.612C304.097 186.347 303.81 186.137 303.479 185.983C303.159 185.828 302.806 185.751 302.42 185.751C302.188 185.751 301.945 185.795 301.692 185.884C301.438 185.972 301.201 186.093 300.98 186.248C300.759 186.402 300.566 186.584 300.401 186.794C300.235 187.003 300.119 187.224 300.053 187.456V189.723C300.208 190.076 300.412 190.396 300.665 190.683C300.919 190.959 301.212 191.185 301.543 191.362C301.874 191.527 302.21 191.61 302.552 191.61Z" fill="#C7C7C7"/>
</svg>
