<svg width="20" height="19" viewBox="0 0 20 19" fill="none" xmlns="http://www.w3.org/2000/svg">
<path fill-rule="evenodd" clip-rule="evenodd" d="M0 15.5092C0 12.6734 1.80756 10.2598 4.33338 9.35773C5.01987 9.11253 5.75943 8.97899 6.53017 8.97899C7.30092 8.97899 8.04049 9.11253 8.72692 9.35773C9.0999 9.49084 9.4571 9.65703 9.79526 9.85261C10.1334 9.65703 10.4906 9.49084 10.8636 9.35773C11.55 9.11253 12.2896 8.97899 13.0603 8.97899C13.8311 8.97899 14.5707 9.11253 15.2571 9.35773C17.783 10.2598 19.5905 12.6734 19.5905 15.5092V18.7742H13.8766V17.1417H17.958V15.5092C17.958 12.8043 15.7652 10.6115 13.0603 10.6115C12.4105 10.6115 11.7902 10.7381 11.2228 10.968C12.3603 12.1432 13.0603 13.7444 13.0603 15.5092V18.7742H0V15.5092ZM6.53017 8.16271C5.78033 8.16271 5.07773 7.9605 4.47391 7.60765C3.26258 6.89978 2.44881 5.58559 2.44881 4.08136C2.44881 1.82728 4.2761 0 6.53017 0C7.86526 0 9.0506 0.641056 9.79526 1.63214C10.5399 0.641056 11.7252 0 13.0603 0C15.3144 0 17.1417 1.82728 17.1417 4.08136C17.1417 5.58559 16.3279 6.89978 15.1166 7.60765C14.5128 7.9605 13.8102 8.16271 13.0603 8.16271C12.3105 8.16271 11.6079 7.9605 11.0041 7.60765C10.5327 7.33218 10.1217 6.96497 9.79526 6.53056C9.46886 6.96508 9.05778 7.33218 8.58641 7.60765C7.98259 7.9605 7.28001 8.16271 6.53017 8.16271ZM11.4278 15.5092V17.1417H1.63254V15.5092C1.63254 12.8043 3.82529 10.6115 6.53017 10.6115C9.23508 10.6115 11.4278 12.8043 11.4278 15.5092ZM8.97899 4.08136C8.97899 5.4338 7.88257 6.53017 6.53017 6.53017C5.17773 6.53017 4.08136 5.4338 4.08136 4.08136C4.08136 2.72891 5.17773 1.63254 6.53017 1.63254C7.88257 1.63254 8.97899 2.72891 8.97899 4.08136ZM13.0603 1.63254C11.7079 1.63254 10.6115 2.72891 10.6115 4.08136C10.6115 5.4338 11.7079 6.53017 13.0603 6.53017C14.4127 6.53017 15.5092 5.4338 15.5092 4.08136C15.5092 2.72891 14.4127 1.63254 13.0603 1.63254Z" fill="black"/>
</svg>
