<svg width="54" height="54" viewBox="0 0 54 54" fill="none" xmlns="http://www.w3.org/2000/svg">
<g clip-path="url(#clip0_809_11687)">
<path d="M0 -0.000244141V53.9656H53.9658V-0.000244141H0ZM37.5669 33.0695L28.5749 42.0616C28.368 42.2707 28.1184 42.4348 27.8418 42.5495C27.5675 42.6619 27.2752 42.7226 26.9829 42.7226C26.6906 42.7226 26.3982 42.6619 26.124 42.5495C25.8474 42.4348 25.5978 42.2707 25.3909 42.0616L16.3989 33.0695C15.5197 32.1904 15.5197 30.7692 16.3989 29.8901C17.278 29.0109 18.6991 29.0109 19.5783 29.8901L24.7343 35.046V13.4912C24.7343 12.25 25.7394 11.2427 26.9828 11.2427C28.2262 11.2427 29.2313 12.25 29.2313 13.4912V35.046L34.3873 29.8901C35.2664 29.0109 36.6876 29.0109 37.5667 29.8901C38.4461 30.7692 38.4461 32.1904 37.5669 33.0695Z" fill="#1283CF"/>
</g>
<defs>
<clipPath id="clip0_809_11687">
<rect width="53.9658" height="53.9658" rx="8.09487" fill="white"/>
</clipPath>
</defs>
</svg>
