<svg width="12" height="12" viewBox="0 0 12 12" fill="none" xmlns="http://www.w3.org/2000/svg">
<g clip-path="url(#clip0_809_12083)">
<path d="M11.1883 4.22932C11.1045 3.98006 10.8888 3.79832 10.629 3.75859L7.60554 3.29658L6.2475 0.403565C6.13168 0.156972 5.8842 0 5.61231 0C5.34023 0 5.09293 0.156972 4.97711 0.403565L3.61889 3.29676L0.595452 3.75876C0.335674 3.7985 0.119905 3.98006 0.0363409 4.2295C-0.0472228 4.47894 0.0158509 4.75369 0.199549 4.9422L2.40748 7.20626L1.88454 10.4093C1.84142 10.6744 1.95385 10.941 2.17319 11.096C2.39234 11.251 2.68169 11.2667 2.91742 11.1366L5.61248 9.64618L8.30755 11.1366C8.41392 11.1954 8.53098 11.2243 8.64751 11.2243C8.78933 11.2243 8.93116 11.1811 9.05178 11.096C9.27112 10.9411 9.38336 10.6746 9.34025 10.4093L8.81731 7.20626L11.0254 4.9422C11.2088 4.75369 11.2718 4.47894 11.1883 4.22932Z" fill="#1F231F"/>
</g>
<defs>
<clipPath id="clip0_809_12083">
<rect width="11.4032" height="11.4032" fill="white"/>
</clipPath>
</defs>
</svg>
